<svg width="313px" height="377px" viewBox="0 0 313 377" xmlns="http://www.w3.org/2000/svg"><title>Kingdom Code</title><g id="Artboard" transform="translate(-354.000000, -1052.000000)" stroke="#FFFFFF" stroke-width="8.4" fill="#FFFFFF"><g id="Group-2" transform="translate(238.000000, 150.000000)"><g id="Circle" transform="translate(0.000000, 830.000000)"><path d="M157.186384,443.968597 L126.6,443.968597 L126.6,443.968597 C123.507205,443.968597 121,441.461392 121,438.368597 C121,437.718589 121.113166,437.073544 121.334429,436.462354 L251.467058,77 L281.528709,77 L281.528709,77 C284.621504,77 287.128709,79.5072054 287.128709,82.6 C287.128709,83.2475794 287.016387,83.890252 286.796737,84.4994424 L157.186384,443.968597 Z M396.686568,169.733345 L418.854682,191.122927 C421.080351,193.270432 421.143716,196.81559 418.996211,199.041258 C418.980054,199.058004 418.963792,199.074649 418.947427,199.091192 L313.655293,305.527892 C321.86918,313.790564 330.261505,322.142923 338.832518,330.585219 C347.403531,339.027515 356.331536,347.739115 365.616801,356.72028 C374.902065,366.060693 384.54431,375.670396 394.543826,385.549678 C404.543341,395.428961 414.007026,404.679423 422.935165,413.301342 L401.18514,435.636363 L401.18514,435.636363 C399.027414,437.852124 395.482003,437.899171 393.266242,435.741445 C393.247217,435.722918 393.228324,435.704257 393.209565,435.685462 L263.300842,305.527892 L396.686568,169.733345 Z"></path></g></g></g></svg>
