<svg width="118" height="118" viewBox="0 0 118 118" fill="none" xmlns="http://www.w3.org/2000/svg">
<path d="M70.8685 42.6783L63.1361 19.1342C62.8699 18.3241 62.9371 17.4417 63.323 16.681C63.7088 15.9204 64.3816 15.3439 65.1934 15.0783C66.0052 14.8127 66.8894 14.8798 67.6517 15.2649C68.4139 15.6499 68.9916 16.3213 69.2578 17.1314L76.9871 40.6755C77.1189 41.0762 77.1703 41.4989 77.1384 41.9194C77.1065 42.3399 76.9919 42.7501 76.8012 43.1264C76.6104 43.5027 76.3472 43.8379 76.0267 44.1127C75.7061 44.3876 75.3345 44.5967 74.9329 44.7282C74.6092 44.8348 74.2703 44.8888 73.9294 44.8883C73.2509 44.889 72.5895 44.6756 72.0398 44.2787C71.49 43.8818 71.0801 43.3216 70.8685 42.6783ZM41.8702 42.6783L34.1409 19.1342C33.8748 18.3241 33.9421 17.4417 34.3279 16.681C34.7137 15.9204 35.3864 15.3439 36.1982 15.0783C37.01 14.8127 37.8944 14.8798 38.6566 15.2649C39.4188 15.6499 39.9965 16.3213 40.2627 17.1314L47.992 40.6755C48.1238 41.0762 48.1751 41.4989 48.1432 41.9194C48.1113 42.3399 47.9967 42.7501 47.806 43.1264C47.6152 43.5027 47.3521 43.8379 47.0315 44.1127C46.711 44.3876 46.3393 44.5967 45.9378 44.7282C45.6129 44.8349 45.273 44.889 44.9311 44.8883C44.2526 44.8885 43.5915 44.6749 43.0419 44.2781C42.4923 43.8812 42.0822 43.3214 41.8702 42.6783ZM56.3694 42.6783L43.7388 4.21663C43.4727 3.40653 43.54 2.52411 43.9258 1.76349C44.3116 1.00288 44.9845 0.426358 45.7962 0.160737C46.1982 0.0288198 46.6223 -0.0226835 47.0442 0.00913189C47.4661 0.0409473 47.8776 0.155467 48.2551 0.346161C48.6326 0.536854 48.9687 0.799955 49.2442 1.12043C49.5197 1.4409 49.7292 1.81246 49.8606 2.21381L62.4911 40.6755C62.7563 41.4852 62.6885 42.3668 62.3027 43.1267C61.917 43.8865 61.2448 44.4626 60.4338 44.7282C60.1095 44.8325 59.7709 44.8855 59.4302 44.8852C58.7522 44.8856 58.0913 44.6725 57.5418 44.2762C56.9922 43.88 56.5819 43.3208 56.3694 42.6783Z" fill="#ffffff"/>
<path d="M57.5206 117.988C56.8375 117.939 56.1898 117.666 55.6779 117.212C55.166 116.758 54.8185 116.148 54.6894 115.477L45.642 72.8085C45.0719 70.1149 43.8125 67.6144 41.9866 65.5507L33.8074 56.3088C33.3609 55.8088 33.0841 55.1808 33.0163 54.5145C32.9485 53.8482 33.0932 53.1776 33.4299 52.5982C33.7418 52.0951 34.1811 51.683 34.7037 51.4036C35.2262 51.1241 35.8134 50.9872 36.4059 51.0067H81.0767C81.5912 51.0073 82.0977 51.1338 82.5518 51.3751C83.006 51.6165 83.3938 51.9653 83.6814 52.3911C83.9717 52.8187 84.1545 53.31 84.2141 53.8231C84.2738 54.3362 84.2087 54.8561 84.0243 55.3388L60.7452 115.96C60.5271 116.559 60.1285 117.077 59.6041 117.441C59.0797 117.805 58.4553 117.998 57.8164 117.994C57.6937 118.001 57.6024 117.994 57.5206 117.988Z" fill="#ffffff"/>
</svg>
