<?xml version="1.0" encoding="UTF-8"?>
<svg width="42px" height="42px" viewBox="0 0 42 42" version="1.1" xmlns="http://www.w3.org/2000/svg" xmlns:xlink="http://www.w3.org/1999/xlink">
    <title>Artboard</title>
    <g id="Artboard" stroke="none" stroke-width="1" fill="none" fill-rule="evenodd">
        <path d="M20.8653,39.9114 C12.1021,39.9114 4.9858,31.6062 4.9858,21.1507 C4.9858,20.0586 5.0517,18.9669 5.2165,17.941 C8.8733,17.7424 14.606,17.4448 19.3169,17.3783 C19.4487,25.9152 18.4932,37.529 18.4932,37.529 L23.237,37.529 C23.237,37.529 22.2819,25.9152 22.4137,17.3783 C29.9907,17.4776 40.5002,18.1727 40.5002,18.1727 C39.0506,8.5441 30.8144,1 20.8656,1 C9.8951,1 1,10.0993 1,21.1176 C1,32.1355 9.8951,41.2348 20.8656,41.2348 C30.8147,41.2348 39.051,33.6907 40.5002,24.0955 L36.5467,24.0955 C35.3608,33.1614 28.7719,39.9114 20.8653,39.9114 Z M20.8653,2.3896 C27.4212,2.3896 33.0217,6.9227 35.4597,13.6727 C31.7699,13.871 26.7294,14.1027 22.5126,14.1686 C22.743,9.7679 23.237,4.7386 23.237,4.7386 L18.4932,4.7386 C18.4932,4.7386 18.9873,9.7679 19.218,14.1355 C14.9679,14.0696 9.8948,13.8379 6.3038,13.6393 C8.7089,6.9227 14.309,2.3896 20.8653,2.3896 Z" id="Shape" fill="#FFFFFF" fill-rule="nonzero"></path>
    </g>
</svg>