<?xml version="1.0" encoding="UTF-8"?>
<svg width="724px" height="724px" viewBox="0 0 724 724" version="1.1" xmlns="http://www.w3.org/2000/svg" xmlns:xlink="http://www.w3.org/1999/xlink">
    <title>creation</title>
    <g id="creation" stroke="none" stroke-width="1" fill="none" fill-rule="evenodd">
        <g id="Group" transform="translate(324.5995, 361.55) scale(-1, 1) translate(-324.5995, -361.55)" fill="#FFFFFF" fill-rule="nonzero">
            <path d="M286.78,262.061 L333.608,2.383 C319.945,0.639 304.99,2.84217094e-14 304.99,2.84217094e-14 L286.78,96.461 L268.571,0.004 C268.571,0.004 253.618,0.643 239.96,2.387 L286.78,262.061 Z" id="Path"></path>
            <path d="M324.929,269.299 L467.554,47.305 C455.601,40.475 442.039,34.151 442.039,34.151 L388.298,116.299 L408.392,20.225 C408.392,20.225 394.326,15.095 381.046,11.475 L324.929,269.299 Z" id="Path"></path>
            <path d="M357.384,290.587 L574.117,140.087 C565.692,129.199 555.569,118.169 555.569,118.169 L474.491,173.487 L529.817,92.408 C529.817,92.408 518.782,82.292 507.904,73.858 L357.384,290.587 Z" id="Path"></path>
            <path d="M379.238,322.673 L637.062,266.565 C633.435,253.28 628.316,239.21 628.316,239.21 L532.235,259.31 L614.388,205.573 C614.388,205.573 608.064,192.013 601.229,180.053 L379.238,322.673 Z" id="Path"></path>
            <path d="M387.136,360.676 L646.816,407.518 C648.539,393.853 649.199,378.91 649.199,378.91 L552.74,360.685 L649.199,342.488 C649.199,342.488 648.555,327.535 646.818,313.873 L387.136,360.676 Z" id="Path"></path>
            <path d="M379.9,398.825 L601.883,541.459 C608.706,529.522 615.032,515.935 615.032,515.935 L532.891,462.187 L628.972,482.301 C628.972,482.301 634.095,468.229 637.72,454.959 L379.9,398.825 Z" id="Path"></path>
            <path d="M358.602,431.287 L509.11,648.009 C519.989,639.593 531.03,629.468 531.03,629.468 L475.699,548.386 L556.774,603.728 C556.774,603.728 566.89,592.691 575.322,581.809 L358.602,431.287 Z" id="Path"></path>
            <path d="M326.52,453.134 L382.615,710.972 C395.899,707.336 409.961,702.208 409.961,702.208 L389.878,606.138 L443.61,688.291 C443.61,688.291 457.179,681.96 469.132,675.139 L326.52,453.134 Z" id="Path"></path>
            <path d="M288.509,461.039 L241.674,720.706 C255.332,722.445 270.287,723.1 270.287,723.1 L288.498,626.632 L306.697,723.1 C306.697,723.1 321.652,722.445 335.315,720.706 L288.509,461.039 Z" id="Path"></path>
            <path d="M250.367,453.782 L107.723,675.765 C119.681,682.6 133.247,688.924 133.247,688.924 L186.987,606.783 L166.887,702.859 C166.887,702.859 180.954,707.998 194.229,711.616 L250.367,453.782 Z" id="Path"></path>
            <path d="M217.907,432.509 L1.169,582.989 C9.599,593.881 19.717,604.917 19.717,604.917 L100.799,549.589 L45.461,630.653 C45.461,630.653 56.498,640.778 67.379,649.217 L217.907,432.509 Z" id="Path"></path>
            <path d="M216.697,291.805 L66.215,75.067 C55.332,83.505 44.297,93.605 44.297,93.605 L99.619,174.685 L18.55,119.349 C18.55,119.349 8.43,130.384 0,141.262 L216.697,291.805 Z" id="Path"></path>
            <path d="M248.793,269.958 L192.708,12.136 C179.428,15.752 165.355,20.875 165.355,20.875 L185.433,116.958 L131.719,34.803 C131.719,34.803 118.143,41.136 106.185,47.957 L248.793,269.958 Z" id="Path"></path>
        </g>
    </g>
</svg>