<?xml version="1.0" encoding="UTF-8"?>
<svg width="401px" height="401px" viewBox="0 0 401 401" version="1.1" xmlns="http://www.w3.org/2000/svg" xmlns:xlink="http://www.w3.org/1999/xlink">
    <title>Artboard</title>
    <g id="Artboard" stroke="none" stroke-width="1" fill="none" fill-rule="evenodd">
        <polygon id="Path" fill="#FFFFFF" points="356.5 112.5 356.5 141.5 299.5 141.5 300.5 288.5 269.5 288.5 268.5 141.5 212.5 141.5 212.5 112.5"></polygon>
        <path d="M44,113 L44,289 L110.747541,289 C140.413115,289 162.662295,281.112045 178.006557,265.336134 C192.583607,250.29972 200,228.854342 200,201 C200,172.89916 192.583607,151.453782 178.006557,136.663866 C162.662295,120.887955 140.413115,113 110.747541,113 L44,113 Z M74.5144317,145 L104.609922,145 C126.56483,145 142.599312,149.357977 152.713371,158.291829 C162.580745,167.007782 167.514432,181.389105 167.514432,201 C167.514432,220.175097 162.580745,234.338521 152.713371,243.490272 C142.599312,252.424125 126.56483,257 104.609922,257 L74.5144317,257 L74.5144317,145 Z" id="Shape" fill="#FFFFFF" fill-rule="nonzero"></path>
    </g>
</svg>