<svg width="452" height="85" viewBox="0 0 452 85" xmlns="http://www.w3.org/2000/svg"><title>The Globe Church</title><g fill="none" fill-rule="evenodd"><path d="M41.494 0c11.064 0 20.168 4.032 28.004 10.722.923.923 1.04 2.306.118 3.229-1.731 1.844-3.457 3.57-5.19 5.414-.92 1.04-1.844.923-2.995-.118-5.416-4.722-12.562-7.837-19.596-7.837-16.365 0-28.927 13.833-28.927 29.973 0 16.026 12.562 29.859 28.927 29.859 9.57 0 16.137-3.46 17.29-3.919V54.411H47.83c-1.267 0-2.187-.92-2.187-2.075v-6.685c0-1.265.92-2.188 2.187-2.188h20.978c1.151 0 2.074 1.036 2.074 2.188 0 9.222.118 18.674.118 27.896 0 .575-.461 1.496-.923 1.844 0 0-11.874 7.609-28.583 7.609C18.554 83 0 64.674 0 41.619 0 18.562 18.555 0 41.494 0m72.674 1h7.539c1.14 0 2.172 1.027 2.172 2.176v67.199h30.949A2.168 2.168 0 0 1 157 72.544v6.283A2.167 2.167 0 0 1 154.828 81h-40.66c-1.253 0-2.168-1.025-2.168-2.173V3.176c0-1.149.915-2.176 2.168-2.176zm108.288 54.97c12.924 0 23.505-10.471 23.505-23.377 0-12.827-10.581-23.566-23.505-23.566-12.838 0-23.417 10.74-23.417 23.566 0 12.906 10.58 23.378 23.417 23.378zm0-55.97C240.536 0 255 14.535 255 32.593 255 50.647 240.535 65 222.456 65 204.375 65 190 50.647 190 32.593 190 14.535 204.375 0 222.456 0zm111.656 35.745c7.32 0 11.787-5.377 11.787-12.234 0-6.967-4.466-11.767-11.787-11.767h-15.444v24h15.444zm1.83 34.742c6.982 0 12.355-5.374 12.355-12.453 0-6.974-6.635-12.003-14.068-12.003h-15.678v24.456h17.391zM307 3.176c0-1.149.914-2.176 2.171-2.176h25.626c13.846 0 23.798 9.143 23.798 21.14 0 8.802-6.519 15.087-11.899 18.176C352.763 42.83 361 48.433 361 58.946 361 71.748 350.473 81 336.06 81h-26.89a2.168 2.168 0 0 1-2.17-2.173V3.176zm95 0A2.17 2.17 0 0 1 404.173 1h45.66C451.088 1 452 2.027 452 3.176v6.4c0 1.136-.912 2.168-2.167 2.168h-36.072V35.06h30.478c1.14 0 2.17 1.03 2.17 2.167v6.402a2.172 2.172 0 0 1-2.17 2.173H413.76v24.573h36.072c1.255 0 2.167 1.027 2.167 2.169v6.283c0 1.148-.912 2.173-2.167 2.173h-45.66A2.169 2.169 0 0 1 402 78.827V3.176" fill="#FFFFFE"/><rect fill="#FFF" x="200" y="77" width="49" height="8" rx="1.75"/></g></svg>