<?xml version="1.0" encoding="UTF-8"?>
<svg width="228px" height="177px" viewBox="0 0 228 177" version="1.1" xmlns="http://www.w3.org/2000/svg" xmlns:xlink="http://www.w3.org/1999/xlink">
    <!-- Generator: Sketch 58 (84663) - https://sketch.com -->
    <title>Artboard</title>
    <desc>Created with Sketch.</desc>
    <g id="Artboard" stroke="none" stroke-width="1" fill="none" fill-rule="evenodd">
        <g id="IFES" transform="translate(113.987805, 88.500000) scale(1, -1) translate(-113.987805, -88.500000) translate(0.487805, 0.000000)" fill="#FFFFFF" fill-rule="nonzero">
            <polyline id="path16" points="20.5121951 150.769847 20.5121951 45 40.5121951 48.2301533 40.5121951 154 20.5121951 150.769847"></polyline>
            <polyline id="path18" points="75.8081761 97.8526768 94.4689715 100.867136 94.4689715 120.803895 75.8081761 117.790673 75.8081761 140.71838 96.5121951 144.063241 96.5121951 164 55.5121951 157.3771 55.5121951 50 75.8081761 53.2780383 75.8081761 97.8526768"></polyline>
            <polyline id="path20" points="148.512195 82.5868392 127.234706 79.2203198 127.234706 103.434506 145.729869 106.361645 145.729869 126.302083 127.234706 123.374944 127.234706 146.735123 148.234706 150.058323 148.234706 170 106.512195 163.396919 106.512195 56 148.512195 62.6451627 148.512195 82.5868392"></polyline>
            <path d="M175.474489,146.242295 C175.474489,152.704003 179.43991,157.268584 185.730268,158.267201 C191.336175,159.157166 196.394037,156.869382 200.497079,153.866207 L200.497079,174.238961 C194.891171,176.720853 189.010022,177.61448 182.448077,176.571915 C164.94834,173.793368 155.512195,157.824049 155.512195,141.105158 C155.512195,125.652238 162.758589,118.934161 174.518452,112.651911 C180.260762,109.34964 186.549902,107.257184 186.549902,99.1095477 C186.549902,92.0838286 181.35442,86.7635708 174.792475,85.7222262 C168.776141,84.7663378 164.12627,86.2764706 159.341214,88.8877674 L159.341214,68.9374111 C163.989867,66.1637475 171.099859,65.4654485 176.842169,66.377388 C195.983611,69.4171865 206.512195,85.2778541 206.512195,104.103851 C206.512195,132.765855 175.474489,128.821442 175.474489,146.242295" id="path22"></path>
            <path d="M10.5115375,20 C4.98836339,20 0.512195122,15.5238317 0.512195122,10.0011358 C0.512195122,4.47748346 4.98836339,0 10.5115375,0 C16.0342334,0 20.5121951,4.47748346 20.5121951,10.0011358 C20.5121951,15.5238317 16.0342334,20 10.5115375,20" id="path24"></path>
            <path d="M201.093257,44.0110357 C201.093257,46.9215759 201.895467,49.6494564 203.2947,52 L20.5121951,23.8548836 C23.8447682,20.9271589 25.9399098,16.6925752 25.9399098,11.9818742 C25.9399098,9.07385756 25.1383173,6.35078399 23.7434103,4 L206.512195,32.1429534 C203.18469,35.0701974 201.093257,39.3024978 201.093257,44.0110357" id="path26"></path>
            <path d="M216.511,55 C210.988522,55 206.512195,50.5245742 206.512195,45.0005381 C206.512195,39.4776976 210.988522,35 216.511,35 C222.034672,35 226.512195,39.4776976 226.512195,45.0005381 C226.512195,50.5245742 222.034672,55 216.511,55" id="path28"></path>
        </g>
    </g>
</svg>