<?xml version="1.0" encoding="UTF-8"?>
<svg width="168px" height="174px" viewBox="0 0 168 174" version="1.1" xmlns="http://www.w3.org/2000/svg" xmlns:xlink="http://www.w3.org/1999/xlink">
    <!-- Generator: Sketch 58 (84663) - https://sketch.com -->
    <title>Artboard</title>
    <desc>Created with Sketch.</desc>
    <g id="Artboard" stroke="none" stroke-width="1" fill="none" fill-rule="evenodd">
        <path d="M59.5932375,97.762741 C59.9265975,101.301996 61.7531611,104.488623 64.5023438,106.490451 L58.2694803,119.039372 C57.577862,120.429691 58.7287145,120.911399 60.0918943,121.649825 C61.456457,122.388973 63.123257,121.857508 63.8141836,120.465747 L69.3436713,109.356901 L72.3127884,122.603145 C72.7256844,124.408828 73.9007438,123.685545 75.4658758,123.302631 C77.0323913,122.921159 78.0241716,121.373636 77.739225,120.117446 L75.0100996,107.961534 C76.3373149,107.467568 77.6500062,106.654145 78.7178648,105.708036 C81.0984147,107.292336 83.9250586,108.210321 86.9578044,108.210321 C90.6648782,108.210321 94.0157686,106.87625 96.6667413,104.593906 C98.581832,105.859471 100.783945,106.695249 103.149279,106.969995 L99.9664517,119.562905 C99.5832952,121.07942 100.782561,121.473872 102.272307,121.883468 C103.762053,122.294506 105.280846,121.39527 105.66262,119.879477 L108.196709,109.835724 L112.891413,122.615404 C113.428109,124.078556 114.708295,123.942264 116.146169,123.367532 C117.584735,122.797126 118.312317,121.143599 117.957517,120.180183 L112.392757,105.017924 C117.060488,102.274786 120.212884,97.056765 120.212884,91.070752 C120.212884,89.8073507 120.072485,88.5778417 119.806904,87.3995324 C122.116217,84.5994253 123.512595,80.9556085 123.512595,76.9721444 C123.512595,68.1369878 116.643442,60.9741076 108.167661,60.9741076 C106.67584,60.9741076 105.233125,61.1969337 103.868562,61.6101351 C101.057134,58.2684673 96.9295561,56.1577506 92.3289115,56.1577506 C87.8084948,56.1577506 83.6926748,58.1487616 80.8853963,61.3909149 C78.2323488,59.1092925 74.8330451,57.7377234 71.1245882,57.7377234 C66.8877349,57.7377234 63.0596282,59.5109563 60.284164,62.4062512 C58.7397805,61.7565223 56.9768458,61.4139907 55.1011771,61.4356241 C55.2436503,61.1522242 55.3750578,60.8500752 55.4919413,60.5313403 C56.3502395,58.200682 56.0943407,55.8981476 54.9255061,55.3839893 C53.7545963,54.8734366 52.1113113,56.3452416 51.255088,58.677342 C50.8006947,59.9126198 50.6596047,61.145013 50.8041531,62.1033808 C47.698787,63.0300194 44.5097354,64.9561296 41.6450527,68.1074222 C34.8250053,75.6056227 32.4140241,85.6277419 35.832693,89.1799766 C40.8123444,94.3554514 47.8308863,87.6641834 53.356916,85.0212804 C52.5677795,90.0496467 55.0133414,95.3051658 59.5932375,97.762741 Z" id="Sheep" fill="#FFFFFF" fill-rule="nonzero"></path>
    </g>
</svg>