<?xml version="1.0" encoding="UTF-8"?>
<svg width="84px" height="84px" viewBox="0 0 84 84" version="1.1" xmlns="http://www.w3.org/2000/svg" xmlns:xlink="http://www.w3.org/1999/xlink">
    <title>Artboard</title>
    <g id="Artboard" stroke="none" stroke-width="1" fill="none" fill-rule="evenodd">
        <path d="M81.32,37.42 L70.44,37.42 C69.94,37.42 69.54,37.82 69.54,38.32 C69.54,53.44 57.23,65.75 42.11,65.75 C26.99,65.75 14.68,53.44 14.68,38.32 C14.68,37.82 14.28,37.42 13.78,37.42 L2.9,37.42 C2.4,37.42 2,37.82 2,38.32 C2,60.44 19.99,78.43 42.11,78.43 C64.23,78.43 82.22,60.44 82.22,38.32 C82.22,37.82 81.82,37.42 81.32,37.42 Z" id="Path" fill="#FFFFFF" fill-rule="nonzero"></path>
        <path d="M40.02,58.75 C40.73,58.82 41.43,58.86 42.12,58.86 C45.86,58.86 49.52,57.8 52.71,55.79 L52.9,55.68 C53.01,55.62 53.11,55.55 53.22,55.48 L53.48,55.3 C58.86,51.64 62.07,45.67 62.07,39.33 C62.07,39.24 62.05,38.89 62.05,38.89 C61.86,33.06 57.91,27.67 54.73,23.33 L54.58,23.13 C50.22,17.17 46.77,12.46 51,7.26 C51.28,6.92 51.27,6.42 50.99,6.08 C50.7,5.74 50.21,5.66 49.83,5.88 C49.79,5.91 45.31,8.5 41.27,13.13 C37.86,17.04 34.07,23.24 34.78,31.01 C33.35,29.69 31.65,27.11 32.34,22.57 C32.39,22.23 32.26,21.9 31.98,21.69 C31.71,21.48 31.35,21.45 31.04,21.59 C30.8,21.7 28.68,22.75 26.54,25.4 C24.58,27.82 22.24,32.12 22.16,38.85 L22.16,39.21 C22.16,49.42 29.84,57.81 40.02,58.75 Z" id="Path" fill="#FFFFFF" fill-rule="nonzero"></path>
    </g>
</svg>