<?xml version="1.0" encoding="UTF-8"?>
<svg width="223px" height="223px" viewBox="0 0 223 223" version="1.1" xmlns="http://www.w3.org/2000/svg" xmlns:xlink="http://www.w3.org/1999/xlink">
    <!-- Generator: Sketch 58 (84663) - https://sketch.com -->
    <title>Artboard Copy</title>
    <desc>Created with Sketch.</desc>
    <g id="Artboard-Copy" stroke="none" stroke-width="1" fill="none" fill-rule="evenodd">
        <g id="university_of_lincoln_logo" transform="translate(0.000000, 13.000000)" fill="#ffffff" fill-rule="nonzero">
            <g id="Group">
                <g transform="translate(0.000000, 3.000000)">
                    <path d="M45.562,173.334 C46.507,171.794 44.73,169.186 41.795,170.821 C40.854,171.35 39.55,172.073 39.446,172.131 C39.327,172.729 39.216,173.313 39.091,173.916 C39.276,173.856 39.804,173.847 40.075,174.328 C40.664,175.384 42.582,178.832 43.15,179.849 C45.246,178.851 46.002,178.433 46.718,177.916 C49.265,176.094 47.512,173.253 45.562,173.334 Z M40.946,172.702 C41.241,172.534 41.565,172.352 42.048,172.083 C43.982,171.007 45.298,173.435 43.124,174.117 C43.068,174.403 42.946,175.055 42.814,175.646 C42.265,174.659 41.723,173.687 41.607,173.48 C41.421,173.145 41.187,172.892 40.946,172.702 Z M45.368,177.28 C45.077,177.444 44.804,177.626 44.083,177.919 C43.971,177.72 43.425,176.746 42.876,175.758 C42.877,175.755 42.879,175.747 42.879,175.745 C42.878,175.745 42.876,175.747 42.871,175.747 C42.853,175.714 42.834,175.685 42.814,175.65 C43.166,175.453 43.556,175.236 43.763,175.132 C45.975,173.97 47.178,176.27 45.368,177.28 Z" id="Shape"></path>
                    <path d="M36.428,181.468 C36.241,181.544 34.975,182.087 34.661,182.218 C34.086,180.865 32.952,178.193 32.679,177.546 C32.161,176.329 31.03,176.011 30.669,175.976 C30.491,176.551 30.318,177.122 30.13,177.708 C30.318,177.669 30.847,177.714 31.062,178.226 C31.535,179.335 32.889,182.525 33.529,184.034 C34.287,183.711 38.187,182.055 38.744,181.817 C38.303,181.538 37.596,181.083 37.135,180.776 C37.122,181.168 36.597,181.394 36.428,181.468 Z" id="Path"></path>
                    <path d="M65.064,165.391 C64.369,164.094 63.275,162.045 62.941,161.426 C62.787,161.134 62.582,160.829 62.288,160.717 C62.913,160.379 63.303,160.175 63.39,160.125 C63.902,159.854 64.227,159.864 64.389,160.017 C64.528,159.381 64.639,158.821 64.813,157.973 C63.836,158.497 59.67,160.728 58.653,161.27 C58.585,161.588 58.326,162.801 58.215,163.319 C58.445,162.962 58.683,162.639 59.272,162.324 C59.724,162.085 59.769,162.06 60.284,161.785 C60.659,161.583 61.099,161.692 61.353,162.165 C61.922,163.231 63.747,166.643 64.522,168.083 C64.971,167.415 65.566,166.534 65.883,166.057 C65.686,166.04 65.376,165.978 65.064,165.391 Z" id="Path"></path>
                    <path d="M180.278,171.218 C180.896,171.57 181.277,171.787 181.362,171.837 C181.87,172.119 182.032,172.402 181.99,172.62 C182.6,172.399 183.132,172.196 183.943,171.893 C182.978,171.34 178.877,169.004 177.875,168.434 C177.567,168.547 176.406,168.973 175.907,169.153 C176.33,169.16 176.733,169.189 177.309,169.518 C177.753,169.773 177.796,169.798 178.306,170.089 C178.676,170.302 178.816,170.73 178.551,171.197 C177.954,172.244 176.039,175.606 175.228,177.024 C176.039,177.05 177.099,177.082 177.675,177.103 C177.581,176.927 177.47,176.629 177.798,176.056 C178.526,174.776 179.675,172.761 180.023,172.143 C180.188,171.859 180.337,171.526 180.278,171.218 Z" id="Path"></path>
                    <path d="M157.845,157.452 C156.884,156.973 156.507,156.785 155.458,156.266 L155.457,156.261 L155.457,156.261 C154.9,156.498 154.356,156.74 153.794,156.977 C153.941,157.094 154.247,157.531 154.001,158.025 C153.464,159.104 151.823,162.408 151.093,163.869 C151.779,163.855 152.818,163.83 153.529,163.807 C153.403,163.619 153.296,163.375 153.593,162.779 C153.857,162.25 154.03,161.895 154.159,161.639 C158.858,165.335 161.501,159.269 157.845,157.452 Z M155.628,161.003 C155.206,161.189 154.511,161.487 154.159,161.632 C154.727,160.504 155.326,159.292 155.569,158.81 C155.739,158.468 155.818,158.132 155.84,157.826 C156.138,157.973 156.461,158.133 156.946,158.375 C158.929,159.362 157.421,162.411 155.628,161.003 Z" id="Shape"></path>
                    <path d="M59.903,168.62 C59.041,168.501 58.343,168.288 57.277,167.756 C60.219,165.464 57.232,161.896 54.207,163.629 C53.277,164.164 51.98,164.909 51.873,164.969 C51.765,165.565 51.66,166.151 51.546,166.754 C51.725,166.693 52.257,166.679 52.53,167.157 C53.134,168.208 55.202,171.818 55.78,172.824 C56.186,172.205 56.753,171.3 57.088,170.763 C56.887,170.751 56.577,170.703 56.24,170.111 C56.011,169.713 55.698,169.153 55.436,168.701 C54.866,167.707 54.294,166.715 54.055,166.292 C53.864,165.957 53.63,165.704 53.386,165.519 C53.677,165.349 53.998,165.165 54.478,164.892 C56.4,163.788 57.888,166.45 55.725,167.162 C55.64,167.617 55.47,168.513 55.437,168.702 C57.462,169.891 58.824,170.249 59.679,170.298 C61.266,170.401 62.013,168.592 62.196,167.815 C62.101,168.125 61.358,168.822 59.903,168.62 Z" id="Path"></path>
                    <path d="M151.621,159.704 C151.508,159.937 151.025,160.348 150.058,160.186 C149.869,157.977 149.584,153.719 149.584,153.719 L142.813,160.393 L144.275,160.967 C144.275,160.967 144.81,160.435 145.491,159.774 C146.078,160.004 147.541,160.573 148.333,160.888 C148.349,161.029 148.447,162.521 148.475,162.864 C149.165,162.783 149.654,162.723 150.602,162.618 C150.2,162.347 150.152,161.718 150.115,161.219 C150.981,161.011 151.482,160.202 151.621,159.704 Z M146.463,158.82 C147.117,158.174 147.749,157.556 148.081,157.233 C148.127,157.892 148.18,158.701 148.245,159.521 C147.551,159.25 146.855,158.975 146.463,158.82 Z" id="Shape"></path>
                    <path d="M191.473,180.739 C191.344,180.967 190.839,181.345 189.882,181.123 C189.834,178.905 189.814,174.644 189.814,174.644 L182.644,180.882 L184.068,181.543 C184.068,181.543 184.631,181.055 185.352,180.43 C185.925,180.695 187.346,181.353 188.123,181.713 C188.126,181.857 188.134,183.35 188.145,183.701 C188.836,183.66 189.328,183.633 190.278,183.583 C189.893,183.286 189.886,182.656 189.879,182.156 C190.757,182.005 191.306,181.228 191.473,180.739 Z M186.383,179.536 C187.074,178.934 187.744,178.356 188.093,178.053 C188.104,178.719 188.104,179.526 188.118,180.349 C187.439,180.027 186.76,179.716 186.383,179.536 Z" id="Shape"></path>
                    <path d="M52.535,173.039 C51.966,173.37 51.72,173.512 50.888,173.998 C50.525,173.38 50.091,172.632 49.647,171.869 C49.943,171.699 50.179,171.557 50.418,171.422 C50.924,171.125 51.245,171.125 51.412,171.27 C51.524,170.633 51.614,170.073 51.757,169.222 C51.541,169.344 49.914,170.291 49.03,170.812 C48.653,170.172 48.429,169.782 48.326,169.61 C48.132,169.276 47.895,169.026 47.651,168.837 C48.448,168.374 48.592,168.289 49.154,167.964 C49.658,167.667 49.982,167.667 50.147,167.815 C50.262,167.169 50.352,166.614 50.495,165.758 C48.671,166.824 47.884,167.281 46.139,168.301 C46.096,168.576 45.934,169.485 45.823,170.091 C46.003,170.027 46.532,170.012 46.81,170.489 C47.421,171.534 49.167,174.53 49.989,175.941 C50.872,175.426 53.904,173.661 54.888,173.087 C54.317,172.825 53.702,172.53 53.153,172.254 C53.198,172.647 52.691,172.946 52.535,173.039 Z" id="Path"></path>
                    <path d="M164.119,169.167 C163.548,168.833 163.304,168.69 162.467,168.216 C162.827,167.587 163.253,166.847 163.696,166.079 C163.992,166.252 164.225,166.386 164.466,166.523 C164.974,166.815 165.135,167.094 165.094,167.31 C165.699,167.091 166.231,166.888 167.044,166.587 C166.829,166.464 165.196,165.521 164.304,165.015 C164.672,164.372 164.898,163.986 164.999,163.807 C165.19,163.472 165.29,163.144 165.33,162.837 C166.131,163.295 166.278,163.38 166.838,163.705 C167.344,163.996 167.506,164.278 167.463,164.493 C168.078,164.274 168.607,164.074 169.421,163.771 C167.586,162.717 166.799,162.266 165.046,161.258 C164.784,161.359 163.915,161.668 163.337,161.874 C163.481,162 163.759,162.449 163.481,162.927 C162.881,163.977 161.15,166.982 160.335,168.401 C161.22,168.911 164.264,170.66 165.252,171.231 C165.195,170.599 165.145,169.919 165.106,169.314 C164.788,169.543 164.275,169.254 164.119,169.167 Z" id="Path"></path>
                    <path d="M40.341,179.06 C39.704,177.731 38.732,175.703 38.429,175.068 C37.858,173.877 36.712,173.607 36.353,173.589 C36.197,174.178 36.055,174.75 35.894,175.346 C36.081,175.299 36.608,175.325 36.846,175.824 C37.37,176.912 38.968,180.254 39.677,181.729 C40.158,181.075 40.791,180.221 41.127,179.762 C40.932,179.733 40.627,179.654 40.341,179.06 Z" id="Path"></path>
                    <path d="M182.671,178.782 C183.417,177.511 184.549,175.569 184.907,174.964 C185.572,173.818 185.152,172.723 184.968,172.41 C184.394,172.615 183.835,172.816 183.256,173.017 C183.4,173.143 183.676,173.595 183.395,174.074 C182.785,175.118 180.919,178.317 180.091,179.728 C180.9,179.762 181.966,179.801 182.536,179.83 C182.447,179.653 182.34,179.354 182.671,178.782 Z" id="Path"></path>
                    <path d="M162.113,162.274 C162.761,161.118 162.323,160.031 162.131,159.724 C161.563,159.933 161.009,160.145 160.431,160.352 C160.577,160.478 160.86,160.928 160.589,161.41 C159.995,162.466 158.182,165.69 157.381,167.12 C158.188,167.138 159.253,167.165 159.823,167.174 C159.733,167.006 159.618,166.707 159.943,166.13 C160.665,164.847 161.771,162.883 162.113,162.274 Z" id="Path"></path>
                    <path d="M105.108,179.653 C104.033,179.653 103.612,179.653 102.441,179.653 C102.441,179.653 102.441,179.653 102.437,179.648 C102.437,179.653 102.437,179.653 102.437,179.653 L102.437,179.653 C102.042,180.116 101.667,180.57 101.266,181.03 C101.453,181.071 101.92,181.324 101.92,181.877 C101.92,183.087 101.92,186.766 101.92,188.403 C102.527,188.09 103.447,187.602 104.072,187.265 C103.878,187.156 103.67,186.979 103.67,186.317 C103.67,185.73 103.67,185.329 103.67,185.045 C109.524,186.26 109.191,179.653 105.108,179.653 Z M104.708,183.821 C104.41,184.171 103.917,184.75 103.67,185.038 C103.67,183.772 103.67,182.422 103.67,181.879 C103.67,181.497 103.596,181.162 103.476,180.883 C103.81,180.883 104.172,180.883 104.713,180.883 C106.923,180.883 106.938,184.283 104.708,183.821 Z" id="Shape"></path>
                    <path d="M115.739,181.914 C115.739,183.12 115.739,187.283 115.739,188.442 C116.4,188.109 117.343,187.606 117.9,187.306 C117.734,187.197 117.486,187 117.486,186.322 C117.486,185.861 117.492,185.218 117.492,184.691 C117.492,183.545 117.492,182.4 117.492,181.917 C117.492,181.532 117.414,181.199 117.296,180.911 C117.637,180.911 118.003,180.911 118.557,180.911 C120.772,180.911 120.737,183.964 118.507,183.502 C118.209,183.854 117.616,184.55 117.492,184.691 C118.654,186.733 119.663,187.721 120.378,188.19 C121.707,189.063 123.251,187.869 123.8,187.286 C123.563,187.51 122.568,187.746 121.412,186.846 C120.721,186.318 120.222,185.782 119.557,184.792 C123.247,184.263 122.436,179.683 118.952,179.683 C117.874,179.683 116.384,179.683 116.259,179.683 C115.867,180.15 115.487,180.604 115.088,181.07 C115.274,181.108 115.739,181.36 115.739,181.914 Z" id="Path"></path>
                    <path d="M113.543,181.244 C113.969,180.745 114.326,180.311 114.882,179.643 C112.767,179.643 111.861,179.645 109.836,179.645 C109.66,179.863 109.064,180.568 108.662,181.03 C108.849,181.069 109.315,181.32 109.315,181.875 C109.315,183.083 109.315,186.547 109.315,188.186 C110.335,188.186 113.846,188.186 114.986,188.186 C114.625,187.669 114.239,187.108 113.905,186.596 C113.741,186.954 113.157,186.959 112.976,186.959 C112.314,186.959 112.032,186.959 111.069,186.959 C111.069,186.241 111.069,185.381 111.069,184.495 C111.409,184.495 111.685,184.495 111.958,184.495 C112.543,184.495 112.824,184.662 112.894,184.869 C113.311,184.378 113.674,183.936 114.225,183.268 C113.98,183.268 112.091,183.268 111.07,183.269 C111.069,182.528 111.069,182.082 111.069,181.878 C111.069,181.496 110.99,181.157 110.871,180.871 C111.797,180.871 111.963,180.871 112.612,180.871 C113.194,180.872 113.477,181.033 113.543,181.244 Z" id="Path"></path>
                    <path d="M125.453,184.205 C126.721,184.291 127.015,185.254 128.378,185.254 C129.637,185.254 130.423,184.485 130.766,183.673 C130.079,184.274 129.432,184.354 128.828,184.354 C127.715,184.354 127.101,183.298 125.858,183.298 C124.077,183.298 123.543,184.618 123.43,184.876 C124.418,184.094 125.25,184.194 125.453,184.205 Z" id="Path"></path>
                    <path d="M94.834,183.258 C93.053,183.258 92.525,184.576 92.41,184.835 C93.394,184.054 94.228,184.153 94.428,184.167 C95.698,184.247 95.99,185.215 97.352,185.215 C98.613,185.215 99.403,184.446 99.741,183.634 C99.055,184.233 98.412,184.312 97.805,184.312 C96.694,184.312 96.078,183.258 94.834,183.258 Z" id="Path"></path>
                    <path d="M72.762,161.739 C73.979,160.805 73.572,159.639 73.227,159.069 C73.346,159.377 73.342,160.19 71.765,160.928 C69.774,159.296 66.719,156.791 66.719,156.791 L66.912,166.287 L68.337,165.621 C68.337,165.621 68.323,164.878 68.306,163.926 C68.881,163.657 70.134,163.072 71.072,162.628 C71.79,163.222 72.4,163.725 72.605,163.881 C73.011,163.326 73.582,162.56 73.88,162.168 C73.526,162.246 73.138,162.025 72.762,161.739 Z M68.281,162.564 C68.264,161.639 68.246,160.748 68.239,160.283 C68.597,160.573 69.284,161.147 70.015,161.749 C69.331,162.07 68.655,162.386 68.281,162.564 Z" id="Shape"></path>
                    <path d="M76.09,156.682 C74.903,156.712 74.165,156.674 73.904,156.009 C73.69,155.473 73.946,154.801 74.894,154.431 C75.822,154.066 76.282,154.403 76.386,154.743 L76.94,153.081 C76.334,152.902 75.389,152.978 74.489,153.332 C72.605,154.072 71.876,155.563 72.413,156.93 C72.869,158.087 74.022,158.483 75.532,158.429 C76.628,158.391 77.274,158.387 77.555,159.105 C77.805,159.748 77.493,160.428 76.671,160.752 C75.905,161.05 75.276,160.771 75.183,160.387 L74.066,161.69 C74.887,162.297 76.12,162.218 77.035,161.858 C79.055,161.071 79.612,159.541 79.084,158.201 C78.597,156.948 77.599,156.64 76.09,156.682 Z" id="Path"></path>
                    <path d="M141.966,155.426 C141.083,154.638 140.569,154.103 140.831,153.447 C141.049,152.905 141.692,152.59 142.638,152.967 C143.565,153.34 143.665,153.9 143.51,154.221 L145.051,153.388 C144.736,152.835 143.994,152.252 143.092,151.895 C141.212,151.14 139.66,151.732 139.114,153.09 C138.655,154.252 139.222,155.33 140.368,156.321 C141.191,157.045 141.66,157.484 141.38,158.197 C141.121,158.842 140.429,159.125 139.605,158.796 C138.846,158.49 138.58,157.855 138.772,157.511 L137.067,157.697 C137.244,158.703 138.202,159.49 139.111,159.856 C141.129,160.66 142.581,159.924 143.11,158.587 C143.609,157.333 143.092,156.435 141.966,155.426 Z" id="Path"></path>
                    <path d="M175.243,169.078 C175.743,168.223 175.433,167.4 175.297,167.168 C174.866,167.317 174.447,167.463 174.011,167.611 C174.118,167.71 174.325,168.051 174.112,168.406 C173.841,168.869 172.912,170.441 172.012,171.967 C172.012,171.967 171.47,165.652 170.778,164.498 C170.286,164.663 169.751,164.853 169.066,165.097 C169.197,165.224 169.475,165.669 169.2,166.134 C168.742,166.91 166.488,170.738 165.865,171.789 C166.469,171.818 167.27,171.852 167.698,171.869 C167.628,171.74 167.55,171.515 167.801,171.089 C168.114,170.557 169.072,168.938 169.727,167.825 C169.993,170.299 170.503,174.525 170.503,174.525 C170.503,174.525 171.905,174.589 172.333,174.608 C172.265,174.479 172.187,174.257 172.437,173.831 C172.998,172.881 174.975,169.53 175.243,169.078 Z" id="Path"></path>
                    <path d="M198.562,178.873 C198.892,179.033 198.985,179.506 198.681,179.835 C198.031,180.538 197.267,181.259 196.068,182.56 C195.596,180.765 194.922,178.032 194.727,177.278 C194.623,176.864 194.378,176.469 194.133,176.236 C193.756,176.494 193.024,177.005 192.642,177.264 C192.822,177.349 193.179,177.737 193.048,178.222 C192.809,179.098 191.649,183.385 191.327,184.572 C191.918,184.439 192.698,184.26 193.113,184.162 C193.014,184.055 192.88,183.861 193.007,183.382 C193.131,182.924 193.478,181.656 193.739,180.676 L195.039,185.577 L198.4,181.974 C198.005,183.426 197.523,185.21 197.262,186.174 C198.049,185.997 199.09,185.765 199.645,185.636 C199.514,185.487 199.331,185.234 199.507,184.595 C199.891,183.175 200.482,181.001 200.663,180.32 C201.008,179.049 200.319,178.092 200.056,177.846 C199.557,178.186 199.072,178.529 198.562,178.873 Z" id="Path"></path>
                    <path d="M30.969,138.617 C29.324,141.315 25.894,143.79 21.015,147.061 C19.618,149.854 17.269,152.15 16.038,152.039 C16.71,150.81 17.324,149.577 17.855,147.255 C15.758,150.19 14.195,153.714 10.614,155.336 C11.563,154.22 12.964,151.983 13.492,149.69 C11.256,152.986 8.879,155.894 6.139,157.238 C10.278,152.094 11.955,146.167 11.955,143.258 C7.93,152.428 4.127,156.906 0.996,160.034 C10.728,161.15 32.757,144.431 32.757,144.431 C32.757,144.431 33.432,140.632 30.969,138.617 Z" id="Path"></path>
                    <path d="M10.171,136.6 C21.796,125.635 33.432,124.966 34.324,109.079 C28.955,121.607 15.536,126.083 10.171,136.6 Z" id="Path"></path>
                    <path d="M47.581,103.762 C46.237,110.141 45.343,117.636 38.63,120.991 C49.254,119.313 47.914,109.579 47.581,103.762 Z" id="Path"></path>
                    <path d="M108.012,154.888 L114.947,154.888 C114.95,154.888 114.95,154.888 114.955,154.888 L115.457,154.888 C116.445,154.888 117.246,154.497 117.246,154.018 C117.246,153.543 116.445,153.156 115.457,153.156 L114.947,153.156 L108.522,153.156 L108.012,153.156 C107.024,153.156 106.223,153.544 106.223,154.018 C106.223,154.497 107.024,154.888 108.012,154.888 Z" id="Path"></path>
                    <path d="M108.012,157.397 L114.947,157.397 C114.95,157.397 114.95,157.397 114.955,157.397 L115.457,157.397 C116.445,157.397 117.246,157.007 117.246,156.529 C117.246,156.048 116.445,155.663 115.457,155.663 L114.947,155.663 L108.522,155.663 L108.012,155.663 C107.024,155.663 106.223,156.048 106.223,156.529 C106.223,157.008 107.024,157.397 108.012,157.397 Z" id="Path"></path>
                    <path d="M97.758,102.642 L86.919,102.642 C87.623,103.69 88.431,104.893 89.165,105.969 L95.514,105.969 C96.238,104.9 97.046,103.704 97.758,102.642 Z" id="Path"></path>
                    <path d="M89.146,121.442 C88.398,122.54 87.573,123.767 86.858,124.834 C89.844,124.831 94.712,124.826 97.764,124.834 C97.041,123.752 96.218,122.531 95.478,121.442 L89.146,121.442 Z" id="Path"></path>
                    <rect id="Rectangle" x="89.28" y="107.198" width="6.123" height="13.015"></rect>
                    <path d="M82.278,123.026 C82.28,123.031 82.281,123.037 82.281,123.044 C82.583,124.915 84.22,125.451 85.232,124.848 C86.042,123.636 87.108,122.047 88.051,120.662 L88.051,106.721 C87.134,105.375 86.103,103.839 85.301,102.642 C85.301,102.642 83.442,102.806 83.5,101.488 C83.534,100.595 84.751,100.499 85.488,100.601 C85.767,100.595 100.917,100.589 102.062,100.599 L102.041,121.394 C101.319,121.854 100.538,122.504 100.137,123.04 L100.13,102.642 L99.371,102.642 C98.552,103.865 97.536,105.377 96.63,106.706 L96.63,120.756 C97.544,122.096 98.568,123.626 99.382,124.841 C99.705,124.844 99.95,124.841 100.144,124.844 C100.747,123.791 101.677,122.774 102.559,122.364 C102.866,122.358 103.038,122.37 103.276,122.37 C103.276,122.054 103.279,99.309 103.279,99.309 C103.279,99.309 88.045,99.295 85.599,99.307 C84.398,99.054 82.214,99.4 82.225,101.287 C82.225,102.81 82.225,104.854 82.225,107.091 C82.599,107.305 83.306,107.544 84.619,107.586 C84.644,107.931 84.415,108.265 84.007,108.437 C83.475,108.662 82.705,108.607 82.225,108.538 C82.225,111.738 82.225,115.166 82.225,117.934 C82.496,118.163 83.191,118.536 84.857,118.59 C84.882,118.94 84.653,119.27 84.243,119.444 C83.611,119.709 82.641,119.582 82.224,119.507 C82.224,120.711 82.224,121.72 82.224,122.417 C82.224,122.557 82.231,122.68 82.244,122.797 C82.257,122.876 82.269,122.947 82.278,123.026 Z" id="Path"></path>
                    <path d="M135.703,102.647 L124.866,102.647 C125.571,103.697 126.376,104.895 127.11,105.976 L133.459,105.976 C134.187,104.907 134.988,103.711 135.703,102.647 Z" id="Path"></path>
                    <path d="M127.09,121.45 C126.343,122.545 125.517,123.774 124.802,124.836 C127.791,124.833 132.657,124.829 135.71,124.841 C134.985,123.76 134.162,122.536 133.422,121.45 L127.09,121.45 Z" id="Path"></path>
                    <rect id="Rectangle" x="127.227" y="107.206" width="6.12" height="13.012"></rect>
                    <path d="M123.545,99.312 C122.349,99.058 120.162,99.402 120.171966,101.292 C120.171966,102.814 120.171966,104.864 120.171966,107.097 C120.549,107.307 121.255,107.547 122.568,107.59 C122.593,107.939 122.36,108.273 121.954,108.441 C121.422,108.665 120.652,108.611 120.171966,108.546 C120.171966,111.745 120.171966,115.17 120.171966,117.937 C120.445,118.169 121.136,118.545 122.804,118.599 C122.831,118.94 122.6,119.277 122.192,119.448 C121.558,119.713 120.589,119.586 120.171966,119.514 C120.171966,120.715 120.171966,121.721 120.171966,122.423 C120.171966,122.562 120.18,122.687 120.193,122.801 C120.201,122.883 120.212,122.957 120.224,123.033 C120.224,123.037 120.226,123.044 120.227,123.048 C120.529,124.92 122.165,125.458 123.174,124.855 C123.991,123.638 125.055,122.051 125.999,120.667 L125.999,106.729 C125.081,105.378 124.05,103.841 123.249,102.649 C123.249,102.649 121.389,102.816 121.447,101.493 C121.485,100.602 122.698,100.505 123.433,100.606 C123.716,100.602 138.862,100.594 140.01,100.606 L139.99,121.401 C139.268,121.859 138.485,122.51 138.081,123.049 L138.077,102.649 L137.316,102.649 C136.501,103.87 135.481,105.386 134.578,106.714 L134.578,120.762 C135.489,122.105 136.516,123.631 137.329,124.849 C137.653,124.853 137.9,124.845 138.091,124.853 C138.698,123.801 139.625,122.78 140.504,122.371 C140.813,122.359 140.987,122.375 141.223,122.375 C141.223,122.063 141.23,99.316 141.23,99.316 C141.23,99.316 125.994,99.297 123.545,99.312 Z" id="Path"></path>
                    <path d="M119.526,145.687 C119.526,145.687 122.011,143.534 122.18,140.824 C119.526,140.351 116.925,142.616 116.925,142.616 C116.925,142.616 118.296,139.789 117.429,137.109 C114.466,137.718 113.374,141.021 113.374,141.021 C113.374,141.021 113.735,137.498 111.726,135.82 C111.724,135.824 111.723,135.831 111.721,135.835 C111.721,135.831 111.72,135.824 111.718,135.82 C109.707,137.498 110.07,141.021 110.07,141.021 C110.07,141.021 108.978,137.721 106.016,137.109 C105.147,139.789 106.519,142.616 106.519,142.616 C106.519,142.616 103.917,140.351 101.265,140.824 C101.432,143.539 103.917,145.69 103.917,145.69 C103.917,145.69 100.533,144.544 98.436,146.921 C102.898,147.284 105.998,148.989 107.219,152.017 L108.844,152.017 C108.49,150.058 107.837,148.187 106.767,146.523 C106.767,146.523 106.562,146.249 106.995,145.94 C107.455,145.608 107.614,145.977 107.614,145.977 C108.762,147.761 109.486,149.864 109.874,152.017 L111.217,152.017 C111.22,149.769 111.22,147.493 111.22,145.328 C111.22,145.328 111.22,144.95 111.706,144.95 C112.187,144.95 112.23,145.328 112.23,145.328 C112.23,147.481 112.227,149.761 112.219,152.017 L113.57,152.017 C113.958,149.864 114.683,147.763 115.833,145.977 C115.833,145.977 115.989,145.608 116.45,145.94 C116.885,146.249 116.68,146.523 116.68,146.523 C115.608,148.187 114.949,150.058 114.601,152.017 L116.227,152.017 C117.446,148.99 120.546,147.285 125.006,146.921 C122.91,144.544 119.526,145.687 119.526,145.687 Z" id="Path"></path>
                    <path d="M115.946,158.538 L114.34,158.538 C114.413,161.137 114.583,163.53 115.414,165.627 C115.414,165.627 115.809,166.465 115.247,166.718 C114.939,166.857 114.604,166.578 114.324,165.959 C113.637,164.449 113.382,161.514 113.27,158.538 L112.202,158.538 C112.196,159.864 112.193,161.124 112.188,162.255 C112.179,164.757 112.232,166.668 112.232,167.572 C112.232,167.572 112.255,167.966 111.714,167.955 C111.199,167.942 111.163,167.58 111.163,167.58 C111.163,166.682 111.183,164.688 111.192,162.188 C111.197,161.07 111.201,159.839 111.203,158.538 L110.171,158.538 C110.063,161.511 109.804,164.446 109.118,165.959 C108.838,166.578 108.503,166.856 108.195,166.718 C107.635,166.465 108.026,165.627 108.026,165.627 C108.859,163.53 109.029,161.137 109.104,158.538 L107.497,158.538 C107.069,161.558 106.457,163.009 105.218,165.329 C105.01,165.838 105.554,166.884 106.642,166.257 C106.642,167.625 108.321,168.52 109.624,167.496 C109.93,169.261 111.717,168.974 111.717,168.974 C111.717,168.974 111.722,168.966 111.726,168.964 L111.726,168.974 C111.726,168.974 113.515,169.261 113.819,167.496 C115.121,168.519 116.798,167.625 116.798,166.257 C117.886,166.884 118.431,165.838 118.224,165.329 C116.987,163.009 116.371,161.558 115.946,158.538 Z" id="Path"></path>
                    <path d="M157.02,22.51 C157.145,22.387 157.279,22.28 157.417,22.168 C156.844,23.48 156.587,25.506 157.744,28.439 C156.95,24.77 158.509,22.283 159.601,21.051 C159.883,20.961 160.17,20.887 160.468,20.821 C159.783,21.759 158.968,23.726 159.953,27.293 C159.371,23.061 161.515,20.797 164.073,20.609 C165.656,20.767 167.194,21.24 168.381,22.061 C164.233,21.949 162.844,23.497 162.788,25.477 C162.676,29.481 165.532,32.699 168.868,35.903 C168.271,36.367 167.572,36.778 166.749,37.102 C168.112,38.013 169.597,38.139 170.958,37.878 C173.986,40.728 176.992,43.687 178.269,47.282 C177.852,44.356 176.059,40.426 172.693,37.331 C174.054,36.727 175.105,35.85 175.476,35.257 C177.598,39.562 185.65,48.399 197.505,45.939 C183.973,41.799 182.182,30.897 175.807,23.848 C185.091,26.534 191.523,38.084 200.301,38.361 C200.635,35.677 207.6,36.179 211.204,34.503 C214.815,32.826 215.734,24.523 207.515,21.837 C208.44,23.595 208.605,30.391 205.084,31.817 C208.523,31.65 210.114,27.456 209.361,24.188 C215.82,28.379 209.739,35.909 203.824,32.323 C195.939,27.54 193.086,25.192 184.977,22.508 C188.333,21.336 196.163,20.719 200.3,23.627 C198.456,18.428 195.716,17.475 192.92,17.141 C194.597,15.462 196.443,6.178 186.208,3.326 C190.571,5.45 190.739,16.079 180.842,16.244 C175.751,16.332 168.071,15.87 162.138,17.058 C154.604,18.558 152.573,25.024 156.014,29.892 C155.343,28.13 154.819,24.664 157.02,22.51 Z M169.927,34.882 C168.21,33.237 166.454,31.237 165.488,29.306 C163.854,26.011 164.946,23.123 170.088,23.864 C171.895,26.71 172.676,31.655 169.927,34.882 Z" id="Shape"></path>
                    <path d="M12.236,34.505 C15.845,36.181 22.805,35.679 23.141,38.363 C31.919,38.086 38.351,26.535 47.634,23.85 C41.256,30.9 39.47,41.802 25.936,45.941 C37.792,48.401 45.843,39.564 47.967,35.259 C48.337,35.852 49.385,36.73 50.747,37.333 C47.381,40.427 45.59,44.358 45.173,47.284 C46.448,43.688 49.456,40.731 52.482,37.88 C53.842,38.14 55.33,38.014 56.692,37.104 C55.87,36.779 55.168,36.374 54.573,35.905 C57.908,32.701 60.762,29.483 60.652,25.479 C60.594,23.499 59.208,21.954 55.06,22.063 C56.245,21.244 57.782,20.769 59.366,20.612 C61.923,20.799 64.068,23.062 63.486,27.294 C64.473,23.727 63.658,21.76 62.972,20.822 C63.266,20.888 63.557,20.963 63.84,21.052 C64.934,22.283 66.488,24.771 65.695,28.44 C66.852,25.507 66.596,23.481 66.024,22.169 C66.162,22.28 66.298,22.388 66.42,22.511 C68.618,24.67 68.1,28.132 67.426,29.895 C70.866,25.026 68.837,18.56 61.305,17.061 C55.368,15.873 47.689,16.335 42.596,16.247 C32.7,16.081 32.868,5.453 37.231,3.329 C26.997,6.181 28.841,15.467 30.521,17.144 C27.725,17.478 24.984,18.432 23.138,23.63 C27.275,20.726 35.105,21.339 38.461,22.511 C30.354,25.195 27.502,27.546 19.616,32.326 C13.699,35.912 7.622,28.383 14.076,24.191 C13.326,27.46 14.92,31.653 18.358,31.82 C14.837,30.397 15.004,23.602 15.926,21.842 C7.707,24.524 8.63,32.828 12.236,34.505 Z M53.355,23.864 C58.495,23.124 59.586,26.011 57.952,29.306 C56.989,31.237 55.23,33.238 53.513,34.882 C50.767,31.655 51.545,26.71 53.355,23.864 Z" id="Shape"></path>
                    <path d="M108.151,2.246 C108.151,2.246 107.676,1.329 107.16,1.329 C106.641,1.329 106.237,2.263 106.237,2.263 C106.237,2.263 106.959,3.08 107.16,3.634 C107.593,2.777 108.151,2.246 108.151,2.246 Z" id="Path"></path>
                    <path d="M104.475,0.669 C104.491,0.797 104.923,0.874 104.952,0.977 C105.312,2.354 106.275,1.496 106.432,0.95 C105.972,0.437 105.063,0.027 104.475,0.669 Z" id="Path"></path>
                    <path d="M109.291,1.019 C109.32,0.916 109.752,0.841 109.769,0.708 C109.183,0.065 108.364,0.383 107.812,0.99 C107.965,1.538 108.933,2.395 109.291,1.019 Z" id="Path"></path>
                    <path d="M211.482,143.258 C211.482,146.167 213.159,152.095 217.299,157.238 C214.56,155.894 212.184,152.986 209.946,149.688 C210.478,151.983 211.875,154.214 212.825,155.335 C209.245,153.713 207.679,150.189 205.583,147.254 C206.114,149.576 206.73,150.809 207.4,152.038 C206.171,152.149 203.822,149.853 202.425,147.06 C197.545,143.787 194.114,141.314 192.471,138.616 C190.01,140.628 190.682,144.43 190.682,144.43 C190.682,144.43 212.713,161.149 222.442,160.033 C219.314,156.906 215.511,152.428 211.482,143.258 Z" id="Path"></path>
                    <path d="M98.52,66.348 C105.508,69.313 111.717,73.843 111.717,73.843 L111.72,73.84 L111.725,73.843 C111.725,73.843 117.931,69.313 124.92,66.348 C118.77,66.127 111.725,71.202 111.725,71.202 L111.72,71.206 L111.717,71.202 C111.717,71.202 104.672,66.127 98.52,66.348 Z" id="Path"></path>
                    <path d="M184.81,120.99 C178.099,117.636 177.207,110.136 175.862,103.761 C175.53,109.579 174.186,119.313 184.81,120.99 Z" id="Path"></path>
                    <path d="M181.567,105.718 C182.463,119.928 187.604,124.291 193.646,124.406 C190.406,122.616 184.587,119.147 181.567,105.718 Z" id="Path"></path>
                    <path d="M174.524,114.727 C171.582,112.213 170.832,108.014 170.607,101.414 C168.817,107.008 169.04,112.267 174.524,114.727 Z" id="Path"></path>
                    <path d="M213.273,136.6 C207.903,126.083 194.485,121.608 189.116,109.074 C190.012,124.966 201.644,125.635 213.273,136.6 Z" id="Path"></path>
                    <path d="M29.796,124.406 C35.835,124.295 40.979,119.927 41.875,105.718 C38.852,119.147 33.038,122.616 29.796,124.406 Z" id="Path"></path>
                    <path d="M52.833,101.413 C52.608,108.014 51.862,112.213 48.921,114.726 C54.4,112.267 54.625,107.008 52.833,101.413 Z" id="Path"></path>
                </g>
                <path d="M185.762,98.429 C211.261,114.764 216.014,141.057 216.908,145.308 C210.198,138.704 203.543,134.957 193.478,129.364 C190.57,129.026 179.749,125.083 173.464,119.399 C168.202,117.615 164.902,109.557 168.26,103.016 C162.05,106.873 165.239,115.938 165.239,115.938 C165.239,115.938 164.822,115.734 164.181,115.296 C160.853,112.45 159.48,107.506 162.61,102.286 C159.894,104.322 158.886,106.597 158.523,108.226 C158.047,105.691 158.097,102.6 160.876,98.818 C158.597,99.824 157.363,101.289 156.706,102.678 C156.688,102.561 156.674,102.441 156.657,102.314 C156.803,100.006 157.543,96.434 160.542,94.29 C159.297,94.579 158.34,95.1 157.601,95.742 C163.168,83.918 184.523,79.144 187.996,67.843 C190.338,60.231 181.4,57.106 175.404,58.049 C175.329,57.486 175.167,56.637 174.69,56.372 C172.883,62.431 165.447,63.918 159.551,61.21 C158.118,58.657 160.415,57.744 161.993,57.169 C162.579,56.959 166.72,58.549 167.303,54.993 C168.951,54.835 170.648,54.408 171.234,53.721 C169.694,53.77 166.676,53.179 164.647,53.56 C162.363,53.981 162.045,54.568 161.566,55.682 C161.149,56.659 160.406,55.24 158.75,54.781 C160.506,52.865 165.363,49.192 175.139,52.967 C186.769,53.079 192.25,57.748 193.479,63.03 C197.169,78.912 170.888,86.406 169.544,96.024 C174.577,95.296 178.492,95.915 182.181,96.859 C181.01,95.968 178.381,94.347 174.467,93.565 C175.979,88.683 189.324,82.604 194.037,73.184 C198.387,72.972 203.519,73.906 206.173,77.178 C204.456,72.498 199.489,71.25 194.812,71.381 C195.473,69.556 195.793,67.61 195.642,65.53 C199.864,66.254 203.509,67.825 205.794,69.965 C209.736,73.657 207.724,81.304 201.809,82.001 C197.198,82.547 195.059,79.609 195.185,77.601 C191.717,84.309 199.185,88.363 199.185,88.363 C199.185,88.363 193.757,102.678 208.856,106.539 C201.138,101.171 202.986,91.94 207.014,87.247 C211.038,82.548 213.694,76.683 209.192,70.553 C207.175,67.806 202.142,64.629 195.372,63.615 C195.31,63.312 195.239,63.006 195.158,62.698 C193.478,56.462 187.741,52.206 176.001,51.053 C168.383,39.934 148.538,38.795 146.62,29.119 C147.96,30.88 151.065,32.388 155.091,32.642 C150.478,31.213 146.62,27.244 144.381,24.224 C140.811,39.664 166.824,42.523 173.458,50.419 C162.321,46.971 157.081,54.261 157.081,54.261 C157.081,54.261 153.576,54.34 154.025,58.182 C153.226,59.511 151.3,60.406 149.396,61.149 C149.377,60.215 149.432,59.247 149.497,58.287 L149.59,58.287 C150.599,58.287 151.423,57.466 151.423,56.455 C151.423,55.464 150.638,54.663 149.661,54.627 C150.117,49.234 155.024,50.037 157.195,50.744 C155.598,45.732 149.621,47.097 149.621,47.097 C149.621,47.097 150.361,40.494 147.172,38.217 C143.983,40.494 144.723,47.097 144.723,47.097 C144.723,47.097 138.744,45.732 137.151,50.744 C139.32,50.036 144.227,49.234 144.687,54.627 C143.706,54.663 142.923,55.463 142.923,56.455 C142.923,57.466 143.742,58.287 144.755,58.287 L144.848,58.287 C145.089,62.045 145.251,65.919 141.08,67.37 C143.631,68.733 146.18,67.679 147.172,66.182 C148.163,67.678 150.714,68.732 153.267,67.37 C151.223,66.661 150.221,65.368 149.758,63.793 C152.651,63.423 155.263,63.793 158.277,63.226 C160.666,64.026 170.069,66.467 175.38,59.562 C175.854,59.522 176.326,59.496 176.788,59.48 C176.652,63.99 173.84,67.749 170.327,69.856 C164.739,73.214 151.542,75.836 143.265,70.694 C138.064,67.464 134.103,60.434 127.937,56.103 C129.91,55.863 130.979,54.584 131.324,53.239 C131.791,51.424 131.058,49.094 129.176,47.657 L129.201,29.901 L129.201,29.901 L129.201,24.083 L127.905,24.76 L125.845,13.655 L125.845,13.31 C126.252,13.177 126.547,12.798 126.547,12.341 C126.547,11.78 126.096,11.32 125.541,11.32 C124.984,11.32 124.534,11.78 124.534,12.341 C124.534,12.808 124.842,13.196 125.258,13.318 L125.258,13.659 L123.204,24.757 L121.907,24.084 L121.907,28.754 L121.898,28.754 L121.898,31.774 L121.577,31.774 C120.801,29.993 120.018,28.083 118.765,24.67 C119.355,25.176 121.118,26.099 121.536,26.182 C119.944,20.648 118.372,11.157 112.419,7.672 C112.178,7.528 111.65,6.958 111.693,5.88 C111.737,4.801 111.791,2.696 110.773,1.516 C109.959,0.579 108.433,0.296 107.165,0.26 C106.1,0.227 105.183,0.353 104.285,0.901 C101.713,2.469 102.439,7.222 102.439,7.222 C102.439,7.222 101.989,9.35 101.989,10.246 C98.524,15.057 104.173,19.516 106.019,21.236 C106.506,24.982 106.691,25.177 107.024,27.192 C106.939,27.912 106.538,30.511 105.484,31.775 L101.551,31.775 L101.544,24.086 L100.247,24.762 L98.189,13.66 L98.189,13.319 C98.607,13.197 98.915,12.809 98.915,12.342 C98.915,11.781 98.462,11.321 97.909,11.321 C97.351,11.321 96.902,11.781 96.902,12.342 C96.902,12.8 97.197,13.18 97.602,13.311 L97.602,13.66 L95.551,24.733 L94.245,24.086 L94.245,28.755 L94.245,28.798 L94.245,29.9 L94.249,29.9 L94.272,47.656 C92.391,49.093 91.656,51.423 92.123,53.238 C92.467,54.583 93.537,55.865 95.51,56.102 C89.346,60.433 85.382,67.462 80.181,70.693 C71.906,75.835 58.709,73.213 53.117,69.855 C49.606,67.748 46.803,63.989 46.663,59.479 C47.123,59.495 47.592,59.525 48.067,59.562 C53.379,66.467 62.78,64.024 65.171,63.226 C68.181,63.792 70.797,63.422 73.69,63.792 C73.223,65.367 72.221,66.66 70.177,67.369 C72.731,68.732 75.281,67.678 76.273,66.181 C77.267,67.677 79.814,68.731 82.366,67.369 C78.194,65.918 78.356,62.046 78.596,58.286 L78.693,58.286 C79.702,58.286 80.524,57.467 80.524,56.454 C80.524,55.463 79.742,54.664 78.762,54.626 C79.218,49.233 84.126,50.036 86.298,50.743 C84.703,45.731 78.723,47.096 78.723,47.096 C78.723,47.096 79.464,40.493 76.274,38.216 C73.084,40.493 73.824,47.096 73.824,47.096 C73.824,47.096 67.848,45.731 66.253,50.743 C68.422,50.035 73.328,49.233 73.789,54.626 C72.808,54.664 72.025,55.462 72.025,56.454 C72.025,57.467 72.844,58.286 73.857,58.286 L73.954,58.286 C74.017,59.248 74.069,60.214 74.051,61.148 C72.147,60.405 70.222,59.51 69.425,58.181 C69.872,54.339 66.367,54.26 66.367,54.26 C66.367,54.26 61.125,46.97 49.987,50.418 C56.623,42.526 82.634,39.663 79.064,24.223 C76.826,27.244 72.97,31.214 68.356,32.641 C72.38,32.387 75.487,30.878 76.826,29.118 C74.909,38.792 55.072,39.929 47.448,51.041 C35.693,52.193 29.971,56.458 28.291,62.697 C28.209,63.004 28.136,63.31 28.075,63.614 C21.305,64.628 16.273,67.805 14.253,70.552 C9.751,76.681 12.409,82.547 16.435,87.246 C20.462,91.94 22.308,101.17 14.589,106.538 C29.688,102.678 24.264,88.364 24.264,88.364 C24.264,88.364 31.728,84.307 28.262,77.6 C28.387,79.611 26.251,82.546 21.635,82 C15.724,81.303 13.709,73.656 17.653,69.964 C19.939,67.824 23.579,66.243 27.807,65.52 C27.652,67.605 27.975,69.555 28.64,71.383 C23.96,71.252 18.99,72.497 17.275,77.178 C19.927,73.905 25.064,72.975 29.413,73.186 C34.129,82.603 47.467,88.684 48.98,93.564 C45.066,94.346 42.44,95.967 41.263,96.858 C44.957,95.914 48.87,95.297 53.904,96.023 C52.561,86.407 26.278,78.911 29.97,63.029 C31.198,57.746 36.679,53.077 48.308,52.966 C58.086,49.192 62.944,52.865 64.697,54.78 C63.043,55.241 62.298,56.657 61.88,55.681 C61.404,54.567 61.084,53.98 58.798,53.559 C56.773,53.177 53.755,53.768 52.213,53.72 C52.798,54.407 54.498,54.834 56.145,54.992 C56.732,58.552 60.873,56.958 61.458,57.168 C63.035,57.742 65.333,58.655 63.9,61.209 C58.002,63.917 50.565,62.43 48.762,56.371 C48.281,56.637 48.122,57.485 48.044,58.048 C42.05,57.105 33.11,60.232 35.451,67.842 C38.924,79.145 60.284,83.917 65.847,95.741 C65.11,95.098 64.151,94.577 62.905,94.289 C65.905,96.434 66.646,100.006 66.791,102.313 C66.777,102.44 66.761,102.56 66.745,102.677 C66.084,101.287 64.852,99.823 62.571,98.82 C65.351,102.599 65.399,105.69 64.924,108.225 C64.561,106.595 63.553,104.321 60.839,102.285 C63.969,107.505 62.591,112.451 59.266,115.295 C58.624,115.733 58.209,115.937 58.209,115.937 C58.209,115.937 61.397,106.873 55.191,103.015 C58.545,109.556 55.247,117.614 49.983,119.398 C43.7,125.082 32.878,129.027 29.971,129.363 C19.906,134.957 13.25,138.704 6.539,145.307 C7.435,141.056 12.188,114.763 37.685,98.428 C8.385,111.627 3.016,144.806 3.24,151.684 C5.723,149.026 10.051,144.759 17.622,140.586 C17.001,142.256 16.06,144.956 15.43,147.571 C17.028,143.894 19.002,141.163 20.636,139.3 C20.156,140.838 19.562,143.112 19.375,145.391 C20.977,142.135 22.909,139.318 24.369,137.38 C23.861,138.847 23.309,140.875 22.978,143.463 C24.13,140.809 25.601,138.316 26.927,136.299 C31.117,134.889 29.634,137.867 29.634,137.867 C29.634,137.867 35.45,130.37 43.057,130.145 C41.042,131.041 36.593,134.413 37.239,134.174 C39.362,133.39 41.351,132.605 42.159,132.605 C45.066,132.605 42.446,135.567 40.931,138.762 C37.742,145.474 36.4,149.501 36.567,151.512 C36.76,153.877 33.995,152.853 33.437,150.34 C33.437,151.403 33.212,151.683 33.212,153.472 C33.212,155.259 37.238,160.123 37.573,164.71 C40.369,164.148 40.453,165.968 45.373,166.192 C45.406,166.192 45.435,166.192 45.467,166.192 C38.352,170.301 31.776,173.996 27.498,175.293 C25.372,175.937 23.019,176.558 20.786,176.815 C21.606,175.102 22.815,173.702 24.265,172.901 C21.751,168.789 18.059,165.268 14.254,163.2 C7.547,163.032 3.742,174.383 8.217,178.188 C11.074,178.523 16.835,188.089 21.992,191.7 C23.282,192.707 24.895,193.334 26.993,193.334 C27.809,193.334 28.698,193.241 29.667,193.042 C37.834,191.356 47.079,185.985 56.866,180.299 C67.159,174.32 77.718,168.188 86.807,166.738 C88.494,169.956 82.463,173.391 80.295,174.218 C78.935,174.734 76.827,174.994 77.89,176.299 C78.023,176.474 78.145,176.625 78.255,176.759 C81.523,180.862 84.761,185.464 87.643,192.383 L87.752,192.648 L87.982,192.814 C91.235,195.139 103.81,196.239 111.708,196.282 C111.713,196.282 111.718,196.282 111.724,196.282 C111.731,196.282 111.735,196.282 111.744,196.282 C119.64,196.239 132.212,195.138 135.467,192.814 L135.698,192.648 L135.808,192.383 C138.689,185.464 141.924,180.862 145.196,176.759 C145.301,176.629 145.425,176.474 145.559,176.299 C146.623,174.994 144.513,174.734 143.156,174.218 C140.989,173.391 134.956,169.955 136.643,166.738 C145.733,168.187 156.29,174.32 166.588,180.299 C176.371,185.986 185.615,191.357 193.783,193.042 C194.753,193.241 195.642,193.334 196.459,193.334 C198.552,193.334 200.161,192.713 201.453,191.704 C206.612,188.101 212.376,178.523 215.238,178.184 C219.711,174.382 215.907,163.032 209.196,163.2 C205.391,165.268 201.699,168.789 199.185,172.901 C200.638,173.702 201.847,175.102 202.667,176.815 C200.434,176.557 198.08,175.936 195.955,175.293 C191.675,173.996 185.102,170.302 177.988,166.192 C178.019,166.192 178.046,166.192 178.079,166.192 C182.999,165.966 183.084,164.148 185.879,164.71 C186.213,160.123 190.24,155.259 190.24,153.472 C190.24,151.683 190.016,151.404 190.017,150.34 C189.458,152.853 186.689,153.874 186.888,151.512 C187.053,149.501 185.713,145.474 182.524,138.761 C181.006,135.565 178.387,132.605 181.292,132.605 C182.103,132.605 184.09,133.387 186.213,134.174 C186.863,134.412 182.413,131.04 180.396,130.145 C188.001,130.368 193.82,137.867 193.82,137.867 C193.82,137.867 192.337,134.888 196.527,136.297 C197.854,138.316 199.322,140.809 200.475,143.463 C200.143,140.875 199.594,138.847 199.083,137.38 C200.545,139.318 202.478,142.135 204.081,145.391 C203.891,143.112 203.299,140.838 202.82,139.3 C204.451,141.163 206.426,143.895 208.023,147.571 C207.395,144.953 206.451,142.256 205.83,140.586 C213.401,144.759 217.726,149.025 220.214,151.683 C220.432,144.806 215.062,111.628 185.762,98.429 Z M165.179,54.515 C165.736,54.515 166.186,54.919 166.186,55.416 C166.186,55.916 165.735,56.32 165.179,56.32 C164.623,56.32 164.169998,55.916 164.169998,55.416 C164.169,54.919 164.622,54.515 165.179,54.515 Z M58.265,56.321 C57.705,56.321 57.254,55.919 57.254,55.416 C57.254,54.919 57.705,54.515 58.265,54.515 C58.82,54.515 59.273,54.919 59.273,55.416 C59.273,55.919 58.82,56.321 58.265,56.321 Z M172.9,130.703 C172.9,130.703 165.743,127.349 163.283,119.292 C166.861,123.547 172.9,130.703 172.9,130.703 Z M178.823,59.482 C181.504,59.614 183.806,60.309 185.313,62.136 C185.694,62.6 185.977,63.11 186.181,63.657 C183.595,64.053 180.883,64.779 178.082,65.947 C178.697,63.819 178.945,61.615 178.823,59.482 Z M171.146,76.034 C172.154,75.594 175.463,74.201 178.268,73.545 C176.395,73.444 174.569,73.783 173.4,74.074 C173.777,73.682 174.129,73.28 174.468,72.864 C176.155,72.299 178.725,71.493 180.841,71.083 C178.837,70.922 176.799,71.265 175.432,71.586 C175.689,71.211 175.924,70.829 176.154,70.44 C177.775,69.855 180.087,69.073 182.015,68.623 C179.992,68.652 178.196,68.873 176.872,69.097 C177.044,68.742 177.213,68.379 177.364,68.016 C180.293,66.593 183.416,65.734 186.508,65.345 C186.596,67.833 185.122,70.833 181.734,73.771 C181.54,73.939 181.325,74.108 181.092,74.289 C174.988,76.246 169.082,78.571 164.625,79.137 C167.125,78.478 169.298,77.4 171.146,76.034 Z M134.204,83.387 C130.497,78.033 130.497,72.911 130.622,71.223 C134.564,79.977 140.367,91.472 154.333,86.519 C145.724,85.85 141.025,79.693 140.198,76.422 C144.771,79.026 149.422,81.11 155.788,81.43 C162.551,81.768 169.19,79.806 175.68,77.705 C165.028,83.922 147.25,93.618 154.672,107.376 C155.343,112.522 157.802,117.444 159.592,121.25 C161.383,125.054 163.62,127.74 164.511,128.857 C165.407,129.979 166.023,134.677 160.208,134.228 C154.392,133.783 153.616,132.996 152.321,130.483 C150.42,126.786 152.099,122.986 151.089,121.641 C149.872,120.017 150.087,116.686 148.966,115.43 C148.715,115.153 148.28,114.777 147.842,114.641 C147.845,109.701 147.842,105.346 147.838,100.856 C147.835,97.751 147.835,94.556 147.835,91.037 L147.835,89.869 L146.668,89.866 C144.562,89.855 139.297,89.859 134.866,89.862 L134.74,89.645 C134.629,89.456 132.108,85.236 126.322,84.468 C125.999,82.963 126.397,80.265 126.95,77.112 C128.23,78.632 131.26,81.978 134.204,83.387 Z M145.467,126.271 C145.461,127.875 145.454,129.551 145.445,131.315 C145.424,135.505 143.926,140.281 141.514,145.149 L115.64,126.367 L115.64,104.103 C117.254,103.154 118.859,101.863 120.137,100.638 L120.906,99.902 L120.127,99.176 C119.18,98.293 119.172,97.311 119.335,96.637 C119.603,95.507 120.541,94.498 121.607,94.191 C122.49,93.936 123.352,94.191 124.107,94.924 L125.023,95.822 L125.678,94.718 C126.348,93.579 127.138,92.785 127.953,92.222 C129.206,92.219 140.682,92.201 145.489,92.211 C145.489,95.273 145.491,98.101 145.491,100.858 C145.498,107.293 145.503,113.462 145.483,121.451 C144.977,121.513 144.102,121.644 143.039,122.428 C144.168,122.933 144.913,124.467 145.467,126.271 Z M111.72,177.021 C104.035,173.583 93.161,163.167 85.855,151.968 L111.722,133.199 L137.587,151.968 C130.283,163.166 119.408,173.583 111.72,177.021 Z M126.097,169.342 C126.429,172.264 129.426,175.662 131.048,177.307 C125.533,177.893 119.629,178.155 114.491,178.258 C118.015,176.327 122.062,173.203 126.097,169.342 Z M108.949,178.258 C103.813,178.154 97.908,177.893 92.392,177.307 C94.015,175.662 97.01,172.264 97.342,169.342 C101.379,173.203 105.428,176.327 108.949,178.258 Z M77.96,121.452 C77.94,113.463 77.945,107.294 77.951,100.859 C77.952,98.101 77.954,95.273 77.954,92.212 C82.763,92.201 94.235,92.22 95.492,92.223 C96.305,92.786 97.094,93.58 97.766,94.719 L98.419,95.825 L99.335,94.924 C100.089,94.191 100.955,93.936 101.837,94.191 C102.905,94.498 103.839,95.507 104.108,96.637 C104.27,97.311 104.259,98.293 103.316,99.176 L102.537,99.902 L103.307,100.638 C104.584,101.866 106.193,103.158 107.811,104.111 L107.811,126.363 L81.93,145.149 C79.514,140.281 78.016,135.505 77.995,131.315 C77.989,129.551 77.982,127.875 77.975,126.271 C78.524,124.467 79.272,122.933 80.403,122.429 C79.341,121.646 78.468,121.514 77.96,121.452 Z M100.049,66.677 C101.142,66.984 102.043,67.243 102.393,67.34 C107.841,69 111.714,70.972 111.714,70.972 L111.72,70.95 L111.725,70.972 C111.725,70.972 115.597,69 121.045,67.34 C121.397,67.244 122.298,66.985 123.394,66.677 C123.696,66.596 123.998,66.517 124.307,66.442 C124.296,66.437 124.287,66.432 124.278,66.428 C124.389,66.396 124.503,66.363 124.612,66.333 C125.076,66.199 126.447,64.941 126.839,63.166 L126.839,63.166 C126.606,67.561 125.85,71.805 125.226,75.306 C124.506,79.358 123.962,82.464 124.318,84.599 C123.048,84.978 121.926,85.513 120.924,86.156 C121.003,84.172 121.301,79.612 122.461,73.823 C119.222,76.74 118.74,85.086 118.671,87.88 C117.698,88.75 116.832,89.674 116.009,90.559 C114.488,92.183 113.165,93.591 111.72,94.029 C110.275,93.591 108.952,92.183 107.433,90.559 C106.607,89.674 105.742,88.749 104.769,87.88 C104.701,85.086 104.218,76.739 100.98,73.826 C102.139,79.612 102.44,84.172 102.516,86.156 C101.515,85.513 100.392,84.979 99.124,84.599 C99.478,82.464 98.934,79.357 98.215,75.306 C97.591,71.805 96.838,67.561 96.602,63.166 L96.602,63.166 C96.992,64.941 98.366,66.198 98.827,66.333 C98.938,66.365 99.052,66.396 99.161,66.428 C99.154,66.432 99.143,66.439 99.134,66.445 C99.446,66.518 99.748,66.598 100.049,66.677 Z M98.766,86.577 C101.895,87.593 104.054,89.888 105.966,91.934 C107.667,93.752 109.281,95.474 111.342,96.012 C111.429,96.044 111.514,96.066 111.59,96.073 C111.626,96.081 111.669,96.085 111.724,96.085 C111.774,96.085 111.814,96.081 111.85,96.077 C111.927,96.066 112.013,96.045 112.106,96.013 C114.163,95.473 115.775,93.753 117.475,91.935 C119.359,89.925 121.473,87.67 124.522,86.63 C125.113,86.405 125.481,86.405 125.481,86.405 C128.373,86.638 130.344,87.884 131.543,88.97 C129.334,89.106 126.587,90.026 124.572,92.744 C123.491,92.077 122.274,91.9 121.046,92.255 C119.29,92.766 117.813,94.337 117.375,96.172 C117.066,97.475 117.306,98.764 118.046,99.832 C115.709,101.917 113.248,103.357 111.72,103.511 C110.191,103.355 107.733,101.917 105.395,99.832 C106.133,98.764 106.377,97.475 106.067,96.172 C105.627,94.338 104.154,92.766 102.395,92.26 C101.167,91.901 99.949,92.078 98.87,92.748 C96.853,90.026 94.105,89.107 91.899,88.974 C93.097,87.886 95.07,86.644 97.96,86.406 C97.959,86.404 98.16,86.383 98.766,86.577 Z M111.44,105.504 L111.388,105.528 L111.324,105.486 C111.362,105.494 111.402,105.501 111.44,105.504 Z M124.386,26.154 L125.561,24.082 L126.752,26.154 C126.752,26.154 126.748,27.966 126.744,30.512 L124.385,30.512 C124.386,27.975 124.386,26.154 124.386,26.154 Z M124.386,31.922 L126.745,31.922 C126.745,33.104 126.745,34.38 126.742,35.67 L124.382,35.67 C124.381,34.384 124.381,33.106 124.386,31.922 Z M124.381,37 L126.741,37 C126.737,41.815 126.734,46.426 126.737,46.501 C126.059,46.271 125.157,46.017 124.381,45.838 C124.38,45.617 124.381,41.447 124.381,37 Z M123.657,47.766 C124.778,48.023 125.826,48.306 126.728,48.607 C128.766,49.287 129.743,51.293 129.371,52.739 C129.095,53.82 128.111,54.284 126.61,54.08 C124.796,52.261 125.078,49.684 123.036,47.625 C123.151,47.651 123.657,47.766 123.657,47.766 Z M124.605,59.455 C124.752,60.736 124.687,61.579 124.497,62.223 C123.691,60.672 121.728,57.852 117.512,56.208 C120.524,58.293 122.037,62.003 122.718,64.413 C122.389,64.53 121.995,64.643 121.56,64.747 C121.125,64.495 120.652,64.242 120.114,63.982 C115.248,64.401 111.726,66.569 111.726,66.569 L111.721,66.589 L111.718,66.57 C111.718,66.57 108.197,64.401 103.329,63.981 C102.79,64.241 102.32,64.493 101.885,64.746 C101.447,64.642 101.052,64.529 100.725,64.412 C101.404,62.004 102.92,58.294 105.929,56.207 C101.716,57.851 99.751,60.67 98.948,62.225 C98.758,61.579 98.693,60.735 98.836,59.454 C100.674,56.902 102.853,55.197 106.08,54.373 C107.481,54.159 108.939,53.993 110.629,53.905 C110.714,55.301 111.05,60.291 111.7,65.095 C111.707,65.152 111.711,65.21 111.717,65.267 C111.719,65.259 111.72,65.253 111.72,65.245 C111.722,65.253 111.723,65.259 111.725,65.267 C111.728,65.21 111.732,65.152 111.741,65.098 C112.393,60.29 112.727,55.296 112.813,53.905 C114.505,53.993 115.96,54.159 117.362,54.373 C120.59,55.198 122.766,56.903 124.605,59.455 Z M117.593,46.718 C119.99,48.628 120.165,51.491 121.387,53.025 C120.501,52.8 119.573,52.637 118.601,52.538 C117.769,52.392 116.929,52.267 116.045,52.161 C114.092,50.534 113.923,47.856 111.1,46.321 C111.32,46.316 111.537,46.312 111.752,46.312 C113.529,46.319 115.552,46.469 117.593,46.718 Z M114.024,44.372 C114.032,43.534 114.046,42.382 114.074,41.063 C114.099,39.701 116.283,38.673 116.283,38.673 L116.284,38.679 C116.307,38.694 118.462,39.717 118.492,41.07 C118.524,42.629 118.538,43.95 118.541,44.801 C117.014,44.603 115.482,44.453 114.024,44.372 Z M103.664,7.557 C103.555,5.821 103.414,3.416 104.758,1.988 C105.398,1.403 106.293,1.46 107.161,1.442 C108.097,1.426 108.913,1.673 109.313,2.072 C110.489,3.249 110.21,6.497 110.332,7.094 C110.489,7.837 110.919,8.101 111.172,8.352 C113.43,10.479 116.286,13.618 118.211,19.834 C116.615,18.624 114.306,16.146 111.777,13.565 C112.435,17.248 119.75,23.687 119.75,23.687 C119.75,23.687 108.14,17.288 109.257,10.354 C106.519,12.816 108.39,17.738 109.816,18.911 C109.763,19.695 109.651,20.087 109.651,21.147 C101.206,16.229 103.056,9.843 103.664,7.557 Z M112.277,28.025 C112.277,28.025 113.058,27.441 113.812,26.849 C114.383,27.674 115.259,29.585 116.182,31.772 L112.335,31.772 C112.095,31.614 111.92,31.395 111.945,31.114 C112.139,29.173 112.277,28.025 112.277,28.025 Z M111.493,25.958 C111.381,25.51 110.543,23.499 110.712,20.701 C113.227,22.323 113.058,25.12 113.058,25.12 C113.058,25.12 112.25,25.958 111.493,25.958 Z M108.533,28.139 C109.147,27.691 110.488,26.905 110.488,26.905 C110.488,26.905 110.741,29.4 109.781,31.773 L108.681,31.773 L108.32,31.174 C108.32,31.173 107.859,28.752 108.533,28.139 Z M107.943,21.652 C108.446,21.986 108.978,22.238 109.786,22.577 C109.93,23.355 110.068,24.196 110.152,24.726 C109.536,25.843 108.64,26.016 108.64,26.016 C108.64,26.016 108.281,24.839 107.943,21.652 Z M101.547,35.72 L121.895,35.717 L121.895,37.031 L101.547,37.031 L101.547,35.72 L101.547,35.72 Z M109.417,44.372 C107.958,44.453 106.427,44.602 104.9,44.801 C104.904,43.95 104.92,42.628 104.952,41.07 C104.982,39.719 107.133,38.695 107.158,38.679 L107.159,38.673 C107.159,38.673 109.341,39.701 109.37,41.063 C109.395,42.384 109.409,43.534 109.417,44.372 Z M106.051,46.69 C108.61,47.986 109.405,50.456 110.644,51.893 C108.831,51.98 107.275,52.155 105.795,52.381 C103.723,51.16 103.053,48.743 100.36,47.637 C102.15,47.244 104.11,46.922 106.051,46.69 Z M99.104,45.847 C98.322,46.021 97.424,46.28 96.742,46.506 C96.749,46.43 96.742,41.826 96.742,37.013 L99.101,37.013 C99.104,41.453 99.104,45.622 99.104,45.847 Z M99.101,35.683 L96.738,35.683 C96.738,34.392 96.737,33.119 96.734,31.937 L99.098,31.937 C99.098,33.12 99.098,34.398 99.101,35.683 Z M97.923,24.089 L99.097,26.162 C99.097,26.162 99.097,27.986 99.097,30.525 L96.733,30.525 C96.73,27.977 96.73,26.162 96.73,26.162 L97.923,24.089 Z M94.069,52.739 C93.756,51.52 94.41,49.91 95.848,49.027 C98.226,50.112 99.33,52.331 100.804,53.322 C99.679,53.552 98.473,53.797 97.111,54.044 C95.445,54.349 94.364,53.887 94.069,52.739 Z M38.128,62.136 C39.638,60.312 41.937,59.615 44.617,59.482 C44.499,61.615 44.742,63.819 45.361,65.947 C42.557,64.78 39.848,64.053 37.262,63.659 C37.463,63.111 37.746,62.6 38.128,62.136 Z M41.707,73.77 C38.322,70.837 36.846,67.837 36.932,65.347 C40.024,65.737 43.149,66.592 46.079,68.015 C46.23,68.378 46.395,68.741 46.57,69.096 C45.246,68.872 43.45,68.651 41.428,68.626 C43.353,69.073 45.666,69.856 47.287,70.44 C47.517,70.828 47.753,71.21 48.007,71.586 C46.643,71.265 44.605,70.922 42.603,71.085 C44.716,71.493 47.288,72.299 48.975,72.864 C49.312,73.281 49.664,73.687 50.043,74.074 C48.872,73.783 47.045,73.444 45.175,73.545 C47.98,74.2 51.29,75.594 52.297,76.036 C54.143,77.401 56.32,78.478 58.819,79.135 C54.361,78.571 48.457,76.248 42.356,74.292 C42.117,74.114 41.902,73.938 41.707,73.77 Z M63.851,121.251 C65.641,117.445 68.101,112.523 68.771,107.377 C76.191,93.618 58.417,83.925 47.762,77.706 C54.25,79.807 60.891,81.768 67.65,81.431 C74.02,81.111 78.669,79.028 83.245,76.423 C82.415,79.694 77.719,85.851 69.108,86.52 C83.076,91.473 88.879,79.978 92.819,71.224 C92.944,72.912 92.942,78.034 89.239,83.388 C92.18,81.978 95.211,78.633 96.49,77.114 C97.04,80.267 97.441,82.965 97.121,84.47 C91.331,85.239 88.81,89.458 88.701,89.647 L88.576,89.864 C84.142,89.861 78.877,89.857 76.775,89.868 L75.606,89.873 L75.606,91.042 C75.606,94.558 75.602,97.753 75.6,100.858 C75.594,105.348 75.594,109.703 75.597,114.645 C75.162,114.783 74.724,115.155 74.475,115.432 C73.352,116.688 73.571,120.019 72.35,121.643 C71.342,122.988 73.022,126.788 71.119,130.485 C69.824,132.998 69.05,133.785 63.235,134.232 C57.419,134.679 58.035,129.981 58.929,128.861 C59.824,127.741 62.062,125.055 63.851,121.251 Z M60.16,119.292 C57.7,127.349 50.542,130.706 50.542,130.706 C50.542,130.706 56.581,123.547 60.16,119.292 Z M40.419,158.563 C39.414,155.542 39.916,150.341 41.482,147.431 C42.544,145.456 44.948,142.224 46.732,140.627 C47.576,139.868 49.562,138.426 52.668,134.481 C51.912,137.336 50.399,138.847 49.229,140.439 C49.467,140.777 50.149,141.558 50.821,141.782 C52.164,142.231 58.148,138.65 69.777,137.868 C70.114,136.186 73.581,135.069 75.707,134.286 C75.757,134.269 75.808,134.232 75.855,134.189 C76.569,139.707 79.137,145.372 82.043,150.271 C76.928,149.741 69.235,153.025 60.792,157.523 C60.009,156.835 58.142,155.577 56.471,157.445 C55.016,158.226 51.218,160.437 47.301,161.467 C42.516,162.729 40.99,160.272 40.419,158.563 Z M55.849,178.559 C46.208,184.161 37.102,189.455 29.258,191.071 C26.339,191.675 24.378,191.182 22.881,189.832 C22.369,189.323 21.921,188.785 21.535,188.228 C21.522,188.208 21.508,188.187 21.493,188.162 C21.441,188.091 21.394,188.012 21.344,187.933 C21.118,187.571 20.902,187.179 20.694,186.766 C19.484,184.22 19.37,181.388 20.019,178.906 C22.709,178.717 25.55,177.992 28.077,177.225 C33.013,175.731 40.612,171.333 48.654,166.676 C49.178,166.372 49.707,166.068 50.237,165.76 C51.254,165.543 51.697,165.47 51.995,166.197 C53.367,165.385 53.425,164.686 53.59,164.1 C54.933,163.343 56.526,162.254 57.195,163.177 C57.514,162.429 57.55,161.946 57.493,161.628 C68.12,155.709 78.848,150.573 83.552,152.712 C85.382,155.546 87.238,158.026 88.769,159.945 C90.022,161.516 91.322,163.043 92.645,164.504 C81.813,163.479 68.634,171.136 55.849,178.559 Z M142.142,177.515 C139.316,181.56 136.556,185.388 134.067,191.328 C131.192,193.02 120.173,194.233 111.72,194.276 C103.267,194.233 92.248,193.02 89.375,191.328 C86.886,185.388 84.127,181.559 81.301,177.516 C89.623,179.634 101.795,180.056 111.716,180.159 L111.719,180.14 L111.724,180.159 C121.646,180.057 133.819,179.635 142.142,177.515 Z M195.364,177.223 C197.894,177.99 200.734,178.714 203.424,178.904 C204.075,181.39 203.959,184.222 202.744,186.768 C202.538,187.177 202.326,187.561 202.107,187.917 C202.05,188.003 201.998,188.089 201.942,188.175 C201.933,188.189 201.923,188.201 201.913,188.219 C201.529,188.777 201.078,189.321 200.565,189.831 C199.065,191.178 197.105,191.671 194.182,191.07 C186.34,189.454 177.236,184.16 167.592,178.558 C154.807,171.135 141.629,163.478 130.793,164.501 C132.121,163.04 133.419,161.514 134.673,159.942 C136.205,158.022 138.061,155.542 139.891,152.708 C144.594,150.57 155.321,155.706 165.952,161.625 C165.89,161.942 165.93,162.426 166.248,163.174 C166.917,162.25 168.512,163.34 169.855,164.097 C170.021,164.683 170.074,165.382 171.444,166.194 C171.748,165.467 172.188,165.541 173.204,165.757 C173.734,166.061 174.265,166.369 174.786,166.673 C182.831,171.331 190.432,175.729 195.364,177.223 Z M181.958,147.432 C183.526,150.342 184.025,155.543 183.021,158.561 C182.45,160.273 180.923,162.729 176.143,161.468 C172.226,160.438 168.425,158.227 166.97,157.446 C165.303,155.577 163.432,156.836 162.652,157.522 C154.207,153.026 146.513,149.742 141.401,150.272 C144.304,145.373 146.873,139.708 147.589,134.19 C147.638,134.233 147.684,134.27 147.736,134.287 C149.861,135.07 153.331,136.187 153.664,137.869 C165.294,138.651 171.279,142.232 172.621,141.783 C173.293,141.559 173.976,140.778 174.216,140.44 C173.041,138.848 171.529,137.337 170.775,134.482 C173.88,138.427 175.866,139.87 176.71,140.628 C178.492,142.225 180.896,145.457 181.958,147.432 Z" id="Shape"></path>
            </g>
        </g>
    </g>
</svg>
