<?xml version="1.0" encoding="UTF-8"?>
<svg width="324px" height="324px" viewBox="0 0 324 324" version="1.1" xmlns="http://www.w3.org/2000/svg" xmlns:xlink="http://www.w3.org/1999/xlink">
    <title>University of Lincoln</title>
    <g id="University-of-Lincoln" stroke="none" stroke-width="1" fill="none" fill-rule="evenodd">
        <path d="M216.793854,134 C223.41905,134.609675 230.470183,135.124364 237.634973,135.283409 C246.302681,135.481112 254.001547,135.330902 260.841919,134.946542 L261.520545,136.995122 C262.961806,141.308225 264.887852,146.865349 266.95195,152.737156 L270.93467,163.988123 C275.181867,175.917083 279.099469,186.736357 279.820391,188.761365 C281.238342,192.801563 281.457931,195.407038 280.039981,198.03129 C278.62203,200.627929 275.29288,201.574471 271.734209,201.349156 L271.171702,201.314897 C267.958715,201.146832 265.940876,201.565874 265.10791,204.198722 C264.457283,206.214732 265.737121,208.869595 267.562082,208.934312 L267.715394,208.93364 C269.664111,208.867371 270.325086,210.134213 269.846183,212.036132 C269.3739,213.91044 266.775243,217.941802 262.499321,217.248187 L261.89399,217.148947 C258.089698,216.538039 256.802434,216.603331 256.571514,217.941802 C256.331511,219.336175 257.640258,219.864635 259.885748,219.847434 L260.121357,219.843722 C264.227345,219.759781 266.432066,220.810144 266.535792,224.380937 C266.615241,227.380713 264.147896,230.295443 262.021522,230.295443 C259.891837,230.295443 258.940651,230.998999 258.693475,232.902023 C258.480664,234.736016 258.960439,236.886326 260.649269,237.801118 L260.841919,237.897599 C263.378703,239.051257 263.337103,243.205635 262.772185,246.428663 L262.729945,246.662775 C261.83945,251.50041 257.043797,261.294964 232.625248,260.742722 C227.399244,260.611289 217.084065,258.530443 214.13892,257.32987 L213.827133,257.215761 C212.79211,256.856706 211.814876,256.732073 211.348173,257.482384 L211.282053,257.601573 C210.799839,258.539279 210.654182,261.53795 221.72413,264.00426 L221.652421,265.451281 C221.42476,269.346266 220.554979,280.27781 217.68766,287.982583 L217.351092,288.869788 C213.725497,298.311918 207.301554,311.603462 206.388191,316 L205.667152,315.52293 C199.353914,311.396201 152.559764,281.824075 104,279.095914 C107.123906,276.846082 110.142983,275.740495 112.256116,274.980611 L114.114348,274.286996 L116.282655,273.414454 L117.36069,273.000163 C121.908786,271.234046 128.156497,268.466322 132.782934,261.395316 L133.064131,260.956992 C138.839205,251.788557 144.191069,250.289858 150.317663,248.733939 L150.614721,248.658575 C152.272124,248.237767 153.981389,247.787138 155.76569,247.20618 C163.542902,244.609541 170.927281,240.167311 175.522104,235.329676 C179.864715,230.735537 183.06125,223.951986 184.145068,217.104123 L184.226226,216.563408 C184.849683,212.289059 186.749848,206.037686 188.619115,203.506211 C190.798606,200.551117 193.197849,198.672727 195.720884,196.868591 L198.120265,195.168992 C201.859389,192.497168 205.635268,189.460838 208.712086,183.287548 C212.153789,176.377903 211.559022,168.654254 211.202604,164.07065 L210.902573,159.959201 C210.622296,155.992611 210.380619,151.190219 211.080119,147.685647 C211.923165,143.514015 213.838778,137.842496 216.793854,134 Z M203.049405,132 L204.006592,132.089316 C204.166972,132.104967 204.326571,132.121683 204.483585,132.140489 L208.865926,132.553105 C210.215873,132.703549 211.589095,132.835188 213,132.975677 C209.71269,138.168224 208.27851,144.345298 207.863994,146.354175 C206.979546,150.898483 207.42177,156.97268 207.746511,161.394199 L207.855128,162.709483 L208.015439,164.815494 C208.33742,169.292238 208.591573,175.519362 205.832424,181.053755 C203.070343,186.531764 199.713038,189.180395 196.15439,191.723221 L195.207963,192.395721 L194.459331,192.916908 C191.584815,194.9291 188.664333,197.140387 185.99995,200.742072 C183.514064,204.073841 181.572195,211.025445 180.929258,215.166665 L180.872811,215.546474 C179.979496,221.827532 177.082319,228.079828 173.113386,232.249132 C168.922786,236.670651 162.102118,240.773582 154.840333,243.157464 C153.465079,243.619306 152.085977,243.989733 150.744717,244.334041 L149.046983,244.765727 L148.153373,244.997231 L147.55981,245.155977 L146.967861,245.319866 L146.097705,245.573838 C140.789386,247.178278 135.645118,249.826016 130.308335,258.07179 L130.017045,258.527139 C125.661304,265.456435 119.518934,267.773944 115.055685,269.455383 L112.719324,270.393449 L111.063477,271.014032 L109.954756,271.414534 C103.850317,273.662523 93.0592393,278.591766 88.8491998,297 L81,286.579506 C85.9735465,267.028027 99.8862689,261.751003 104.592534,260.512834 L105.399825,260.302592 C109.276915,259.255464 119.711361,255.814977 124.114074,247.767039 C128.535206,239.685072 136.549547,237.252517 145.842902,234.437214 L149.041546,233.470387 C164.839695,228.558817 168.79422,215.106203 170.300442,209.998833 L171.000907,207.200123 L171.395184,205.575457 C172.701754,200.367466 174.929412,193.830682 182.980625,188.866923 L183.417538,188.602529 C196.266419,180.969683 196.727485,169.937456 196.091303,159.282445 C195.557087,150.025684 199.252263,137.50118 203.049405,132 Z M189.00178,132 C192.249708,132.018724 195.64366,132.234597 199,132.514351 C195.265242,139.081235 192.049086,150.425489 192.460854,159.767999 L192.565135,161.736274 C193.017015,171.224821 192.176362,179.592956 182.066366,185.779194 L181.68288,186.010153 C171.020915,192.338763 168.927904,201.106959 167.543995,206.920116 L166.876931,209.510595 L166.544306,210.625563 C164.897675,216.027297 161.059087,226.340387 148.169264,230.317026 L145.024216,231.279645 L142.738104,231.974521 C133.950403,234.675403 125.842235,237.69224 121.097297,246.357727 C117.4879,252.920179 108.630581,255.942218 105.030764,256.913106 L104.015516,257.175181 C99.0099572,258.508602 84.592667,263.890904 78.5346176,283 L71,273.044501 C75.8165798,254.023428 89.4299999,249.563884 95.2079044,248.507648 L97.9297167,248.032508 C103.981859,246.955282 110.170059,245.416753 115.530685,235.888978 C120.619401,226.915922 130.665189,224.279185 139.527297,221.95194 L140.663408,221.662273 C149.412862,219.341554 155.533395,212.095981 157.504403,201.693221 L157.591131,201.2182 C159.414799,190.837653 163.331914,184.862208 171.457399,180.053204 L171.86719,179.813711 C181.25735,174.413756 182.347833,164.118682 182.905449,156.250738 L182.973865,155.266946 C183.781422,143.573447 185.752746,135.936382 189.00178,132 Z M184,132 C181.366472,136.625172 179.737085,143.621957 178.962886,153.491839 L178.73106,156.624022 C178.046513,165.205189 176.696326,172.097189 170.039692,176.118855 L169.690627,176.324307 C160.471133,181.668008 155.817657,188.496643 153.716213,199.813481 L153.533296,200.823544 C152.509825,206.232202 149.309621,215.193795 139.542315,217.780777 L138.401752,218.070313 L136.753744,218.507996 C128.132512,220.816354 117.99152,223.969355 112.437274,233.373035 L112.172126,233.832953 C107.37405,242.335179 102.431614,243.175163 96.1745001,244.287069 L94.5380411,244.549082 L93.9601211,244.660532 C87.5084449,245.969282 73.9997322,250.855823 68.247805,269 L61,259.377061 C66.4383332,241.914636 77.7690206,237.812695 90.9003637,234.701561 C98.8589539,232.798742 104.824575,228.7573 109.13403,222.324366 L109.412737,221.901434 C112.611821,216.958407 118.498665,213.603974 128.497043,211.044389 C136.4627,208.98372 141.200883,203.468482 143.354404,193.666579 L143.456592,193.188944 C145.327458,184.327636 149.848363,177.677439 157.314562,172.920544 L157.75715,172.642908 C165.916302,167.607406 167.180288,158.151803 167.783078,153.629319 L168.377891,148.608398 C168.931325,144.055747 169.736264,138.627285 171.392103,135.317002 C173.436299,134.419771 175.512453,133.7185 177.514774,133.093191 C179.450975,132.522926 181.64394,132.177244 184,132 Z M167,138 C165.911338,141.995777 165.370327,146.702722 164.938845,150.408518 L164.595872,153.253193 L164.505045,153.926374 C163.94314,158.014095 162.660554,165.407757 156.648083,169.340752 L156.295933,169.563768 C147.751942,174.838565 142.540827,182.190497 140.329278,192.061416 L140.211621,192.60233 C138.415974,201.231254 134.842285,205.699289 128.31232,207.484415 L127.971921,207.574364 C117.140623,210.348749 110.574936,214.127136 106.772867,219.767115 L106.568213,220.076602 C102.788875,225.886134 97.4606287,229.546724 90.2913933,231.267863 L88.7124922,231.651659 C76.1183865,234.7796 64.4786495,239.433669 58.3938273,256 L51,246.212332 C60.770296,227.262164 77.8448039,223.201334 87.788799,220.8429 C92.1188292,219.801472 95.0783083,217.879469 97.3240561,214.570672 L97.5391805,214.24612 C104.469441,203.578587 113.643408,200.386597 122.44121,198.05683 C126.000382,197.120733 128.633527,194.36206 129.671296,190.515133 C133.737181,175.393147 142.90119,167.065305 148.971807,161.553471 C152.41652,158.412166 153.940521,155.234247 154.963657,152.726092 L155.722058,150.82459 C155.788767,150.653672 155.839672,150.519267 155.845643,150.492315 C158.728826,144.587959 162.680757,140.694723 167,138 Z M173.496168,120.251867 L173.715435,120.212231 C184.319168,118.352509 196.808452,118.981272 205.415004,119.799329 L209.824937,120.249868 L219.243163,121.253477 C225.410399,121.905658 231.755234,122.519963 238.227557,122.664186 C258.348566,123.097014 272.846082,121.659051 283.431025,119.827003 L292,126.648198 L290.791226,126.907368 C279.452974,129.29335 262.805844,131.533109 238.062875,131.007475 C227.833821,130.781651 217.825815,129.776516 208.990476,128.903111 L204.619227,128.480245 C203.492981,128.376189 202.353472,128.245566 201.199595,128.14151 L201.162017,128.113836 C201.152069,128.113836 201.120017,128.132654 201.120017,128.14151 L199.747753,128.017715 C191.49015,127.290438 182.847038,126.880721 176.342606,128.874329 L175.633279,129.093411 C167.424592,131.669176 157.498732,136.240562 151.760823,148.246433 L151.723244,148.302889 L150.744075,150.747386 C149.837793,152.96802 148.570472,155.566455 145.748283,158.158309 L144.088358,159.679549 C137.789665,165.505187 129.355085,174.15939 125.36533,189.048513 C124.872391,190.862849 123.690882,193.164255 120.8294,193.934711 L119.237699,194.370722 C110.689397,196.772118 101.25866,200.508624 94.0791141,211.292846 L93.7442336,211.80354 C92.0034707,214.508993 89.8515561,215.936994 86.3191889,216.79158 L84.5697058,217.212516 C82.5601547,217.701627 80.3405716,218.270246 78,219 C81.737943,213.917867 83.1117642,208.468217 83.5991778,203.384977 C116.922354,192.609659 134.027146,158.318821 140.856463,144.638794 L140.982461,144.366478 C149.461601,127.809373 165.194236,122.303814 171.35388,120.731666 L171.777346,120.625964 L172.288963,120.504842 C172.529156,120.449743 172.745521,120.402667 172.936242,120.362845 L173.496168,120.251867 Z M135.153776,8 C165.216658,8 195.283959,29.2565655 208.878206,39.0854296 L209.869073,39.806849 C214.794292,43.4195211 222.402344,49.3631507 230.287228,55.6249999 L239.288077,62.8103085 C251.279444,72.4264808 261.737357,80.9674406 261.737357,80.9674406 L253.510772,90.8538805 L232.293294,74.2328823 C227.243537,70.2843057 221.939029,66.142654 217.170151,62.4314528 L206.437282,54.1156923 C204.572146,52.6816335 203.114781,51.5718908 202.216959,50.906197 C194.927146,45.4940659 185.875362,47.552403 178.18234,53.6698384 C169.7072,60.4161794 170.593157,71.4486004 172.801422,74.6252379 C175.018523,77.7919103 178.18234,80.1414484 182.603287,80.3197121 C195.831883,80.8733262 200.341205,68.9119408 202.254518,65.4164216 C204.143529,61.9109373 206.998033,60.9709007 210.472266,62.8886198 C212.998679,64.2505104 256.265855,98.5125774 280,117.334348 L278.360178,117.57522 C268.535702,118.970302 255.728939,119.935148 238.944403,119.562091 C233.024178,119.456683 227.1895,118.918305 221.4941,118.312606 L210.845649,117.156085 L206.440168,116.733123 C197.803899,115.898222 185.337753,115.277755 174.518095,117.027074 L173.748136,117.156085 C169.74761,117.871874 149.414536,122.355459 138.610022,142.741534 L138.238955,143.455049 C138.190185,143.544283 138.120958,143.66534 138.120958,143.66534 L136.847226,146.21719 C129.636697,160.545273 113.583022,189.841846 84.5316112,200 C84.5923688,197.444517 84.5128315,195.038511 84.5128315,192.924812 C84.5128315,183.404865 77.3920356,174.788416 69.314583,171.762361 L68.4721867,171.447025 C62.5960679,169.228158 57.125997,166.714659 50.3162199,160.579357 C15.8423325,129.475105 32.8445308,73.5445832 59.8231342,44.009273 C82.8436534,18.7877236 107.62283,8 135.153776,8 Z M238.800231,153.0943 C235.166525,153.834303 226.336608,159.271672 224.764173,160.621351 L225.002845,160.782698 C225.056536,160.817142 225.119502,160.856622 225.191961,160.900668 L225.515341,161.090137 C227.301696,162.101506 232.402559,164.458667 242.177933,165.223731 L242.037686,165.015846 C241.412354,164.05184 238.904508,159.778078 238.800231,153.0943 Z M244.968593,151.763398 C245.820467,156.244285 245.206941,162.309 243.638919,164.970804 L243.717475,164.966048 C243.748011,164.963328 243.78691,164.959054 243.833213,164.952343 L243.935411,164.93541 C244.808856,164.773214 247.343189,163.86822 247.856358,158.821043 C248.365981,153.785132 245.493694,152.041706 245.030866,151.794988 L244.968593,151.763398 Z" id="Shape" fill="#FFFFFF"></path>
    </g>
</svg>