<?xml version="1.0" encoding="UTF-8"?>
<svg width="168px" height="174px" viewBox="0 0 168 174" version="1.1" xmlns="http://www.w3.org/2000/svg" xmlns:xlink="http://www.w3.org/1999/xlink">
    <!-- Generator: Sketch 58 (84663) - https://sketch.com -->
    <title>Artboard</title>
    <desc>Created with Sketch.</desc>
    <g id="Artboard" stroke="none" stroke-width="1" fill="none" fill-rule="evenodd">
        <g id="Group-2" transform="translate(12.000000, 45.000000)" fill="#FFFFFF">
            <path d="M143.368802,81.0598091 C143.236329,81.038503 142.797347,80.9905643 142.110303,80.9349606 C138.746512,80.6642174 135.071018,79.9781355 132.885203,74.310067 C132.183872,72.4945027 104.56468,0.879940553 104.383113,0.402502344 C104.175571,-0.14431056 103.657105,-0.129760062 103.475539,0.420430636 C103.320207,0.891373087 96,22.598897 96,22.598897 L115.052175,75.0430483 C115.386346,76.0167625 115.711686,76.9804731 115.711686,77.7211194 C115.711686,78.6585872 115.079579,79.7329856 114.013166,80.2369265 C113.171829,80.634207 111.569937,80.8454491 110.337153,80.9483419 C109.948953,80.9805608 109.61725,81.014079 109.266454,81.0651356 C108.880592,81.1213889 108.725391,81.4525426 108.725391,81.7448517 C108.725391,82.1018586 108.993195,82.36 109.384901,82.36 C109.776478,82.36 143.219445,82.36 143.411661,82.36 C143.697389,82.36 144,82.0948432 144,81.785775 C144,81.2594887 143.683102,81.1115153 143.368802,81.0598091" id="Fill-1"></path>
            <path d="M104.639893,76.5539818 C103.982596,76.3482261 103.573441,76.7597374 103.091571,77.9072108 C102.53218,79.237825 101.32653,79.5983549 100.167237,79.5983549 C97.9991442,79.5983549 95.8165088,77.0983061 94.1952114,74.5538121 C94.1061349,74.4142015 93.1858935,72.9609705 91.8029993,70.7763528 C95.3225623,65.8520737 97.3289924,60.0877783 98.2493637,56.2819524 C98.5667152,54.9696392 99.0348216,52.9863326 99.7358775,52.1629178 C100.707409,51.0223727 101.769316,50.6930852 103.303095,50.5388339 C103.968572,50.471643 104.26385,50.4392241 104.51342,50.3654972 C104.859857,50.2626193 104.960231,49.9320246 104.928807,49.6907127 C104.881153,49.3278299 104.62522,49.1680882 104.353056,49.1680882 C104.081152,49.1680882 91.3228169,49.1657352 90.9482019,49.1657352 C90.5022997,49.1657352 90.2999946,49.4547604 90.2999946,49.8015646 C90.2999946,50.1270611 90.5117787,50.3100712 90.8175736,50.3844518 C91.0293577,50.4356946 91.407998,50.473996 91.6648398,50.4873296 C93.3448289,50.5755666 94.5722936,50.7665507 95.3384039,51.2797633 C96.5737894,52.106969 96.453549,53.3983668 96.219301,55.1585318 C95.695749,59.0889353 93.7130813,64.8839503 90.8296496,69.238545 C85.5836114,60.9509324 76.064625,45.9092011 76.064625,45.9092011 C76.064625,45.9092011 80.0052891,43.8485073 82.680962,42.2998496 C85.2915805,40.7887091 89.2860021,37.750872 89.2860021,32.7834549 C89.2860021,29.8376458 87.6109472,27.5493659 85.3184593,26.0235845 C82.9614363,24.4549264 79.4312257,23.2 75.4240789,23.2 C70.42839,23.2 65.0875618,25.0467027 62.1937422,29.6682307 C59.3992572,34.1309321 60.1209591,40.647922 63.4091309,46.0979629 C64.2975592,47.57041 65.2723373,49.0582821 65.2723373,49.0582821 C64.1036943,49.479859 62.6534084,50.1129432 61.4299691,50.6726927 C54.7835071,53.780335 49.1428571,59.5813632 49.1428571,67.5425642 C49.1428571,76.3981618 55.6850502,83.52 67.7442768,83.52 C74.319971,83.52 79.7387086,81.4195669 84.0581428,78.3131011 C86.0493805,81.0318469 89.7342416,83.0718867 95.0302717,83.0718867 C100.055177,83.0718867 104.034016,80.1271234 105.063721,77.7157038 C105.239407,77.3040618 105.13293,76.7084946 104.639893,76.5539818 Z M69.7949855,26.8459535 C70.8337792,25.3426562 72.3874251,24.721729 74.4695573,24.721729 C77.2985821,24.721729 80.758025,27.3802122 80.758025,34.0906699 C80.758025,38.3087914 78.6404439,42.3616809 75.2354079,44.6176726 C75.2354079,44.6176726 72.2988679,40.0509169 70.6157624,36.8626194 C69.1415842,34.0704081 67.7866076,29.7524154 69.7949855,26.8459535 Z M59.5092395,62.7973736 C59.5092395,58.7972956 60.9025216,53.5845142 65.986508,50.3001364 C65.986508,50.3001364 65.9889751,50.304058 65.9926109,50.3096791 L65.986508,50.3001364 C65.9917019,50.3082411 65.996766,50.3162151 66.0020899,50.3244506 C66.0104002,50.3372613 66.0218269,50.3551702 66.0367596,50.3783079 C77.1245842,67.5965522 77.7421471,68.5868983 83.1324477,76.9149039 C80.7629592,78.4993792 78.1355902,79.4510318 75.5086107,79.4510318 C66.528109,79.4510318 59.5092395,71.06211 59.5092395,62.7973736 L59.5092395,62.7973736 Z" id="Fill-5"></path>
            <path d="M66.432448,4.56083524 C67.4219126,3.97382651 68.7180895,3.69288057 71.3401001,3.55046557 C71.7108766,3.530398 72,3.32363732 72,2.94636705 C72,2.5482524 71.6952136,2.3289333 71.4092998,2.3289333 C71.1228724,2.3289333 55.8764896,2.32349564 55.5045577,2.32349564 C55.1327542,2.32349564 54.7029206,2.43626242 54.7029206,2.93885789 C54.7029206,3.19378074 54.8076829,3.48042328 55.2963169,3.54593418 C55.6658095,3.59539103 56.5113543,3.64821404 57.4544719,3.71476069 C59.7292006,3.87556017 60.603247,4.11442896 61.2563424,5.0626539 C61.8698952,5.95352443 61.5404589,7.53614345 60.849233,9.4184813 C60.1603181,11.2942163 41.8533608,58.6236394 41.8533608,58.6236394 L41.7799245,58.6236394 C41.559102,57.9312436 27.0568397,11.9498431 26.4280091,9.96457807 C25.79905,7.97905409 25.5466448,6.58079776 25.8710741,5.8136988 C26.4631866,4.41311204 27.6427897,3.92113297 30.5847362,3.71670271 C30.9887644,3.68873758 31.1762068,3.67358981 31.5445439,3.64161117 C31.9314969,3.60833785 32.1511639,3.26563558 32.0680987,2.84693549 C31.9814387,2.41062773 31.7296753,2.32 31.2554205,2.32 C31.0384495,2.32 0.760600664,2.32194202 0.623742055,2.32194202 C0.341936571,2.32194202 0.032656657,2.5116129 0.00261452336,2.90403095 C-0.0213935065,3.21475458 0.123039828,3.38953662 0.308428037,3.47459722 C0.488295684,3.55693898 1.026358,3.62736967 2.03559395,3.69961291 C4.27732769,3.85924718 5.00154853,4.05150742 5.83040329,4.45104622 C7.51160731,5.26177595 8.6625805,7.43489933 9.23684744,9.16860771 C9.810986,10.9021866 33.6044842,83.0414673 33.6797179,83.2615633 C33.7951362,83.5988279 34.27902,83.6109979 34.4234533,83.2685545 C34.570326,82.9201557 64.0634845,8.2686744 64.4867705,7.22839759 C64.850229,6.33532609 65.4350235,5.15250481 66.432448,4.56083524" id="Fill-3"></path>
        </g>
    </g>
</svg>