<?xml version="1.0" encoding="UTF-8"?>
<svg width="1080px" height="1080px" viewBox="0 0 1080 1080" version="1.1" xmlns="http://www.w3.org/2000/svg" xmlns:xlink="http://www.w3.org/1999/xlink">
    <title>Vixen Labs</title>
    <g stroke="none" stroke-width="1" fill="none" fill-rule="evenodd">
        <path d="M313.391289,72.4007671 C372.724937,72.4007671 427.548248,104.008084 457.250035,155.369975 L457.250035,155.369975 L771.977099,699.442389 L596.615927,1008.17315 C596.615927,1008.17315 294.615704,477.614265 211.017147,335.241483 C106.982222,158.044709 0.167671233,72.4007671 0.167671233,72.4007671 L0.167671233,72.4007671 Z M1080.16767,170.096747 L793.166938,662.387704 L615.445707,355.142904 L672.996198,255.600833 L599.239964,170.096747 L1080.16767,170.096747 Z M320.12183,107.521951 L88.3639738,107.521951 C88.3639738,107.521951 174.637265,193.288266 214.338712,257.569298 C222.992264,271.554836 258.690352,333.12617 271.504601,355.415622 L271.504601,355.415622 L528.541318,355.415622 L418.614985,164.355683 C398.283508,129.199536 360.732337,107.521951 320.12183,107.521951 L320.12183,107.521951 Z" id="Combined-Shape" fill="#FFFFFF"></path>
    </g>
</svg>
