<?xml version="1.0" encoding="UTF-8"?>
<svg width="1080px" height="1080px" viewBox="0 0 1080 1080" version="1.1" xmlns="http://www.w3.org/2000/svg" xmlns:xlink="http://www.w3.org/1999/xlink">
    <title>Primary_White</title>
    <g id="Primary_White" stroke="none" stroke-width="1" fill="none" fill-rule="evenodd">
        <path d="M975.015865,883.509202 C988.336138,883.509202 999.690467,888.25689 1009.05211,897.752265 C1018.40037,907.247641 1023.09456,918.695587 1023.09456,932.109476 L1022.98757,933.473601 L1022.98757,936.603062 L983.601824,942.046186 C983.601824,941.297255 983.655319,940.080242 983.762309,938.448642 C983.855925,936.803669 983.909421,935.452918 983.909421,934.409764 C983.909421,931.90887 983.748935,929.488218 983.387844,927.174556 C983.040126,924.874268 982.465054,922.560606 981.662627,920.273691 C980.860201,917.973403 979.629815,916.127823 977.94472,914.763699 C976.272999,913.412948 974.25356,912.730886 971.873029,912.730886 C967.673666,912.730886 964.53083,914.362486 962.444522,917.652433 C960.358214,920.929006 959.301687,924.807399 959.301687,929.274237 C959.301687,933.192751 959.903506,936.857164 961.133893,940.280849 C962.350906,943.69116 964.20986,946.900864 966.684007,949.856467 C969.158154,952.825443 971.458442,955.29959 973.54475,957.238787 C975.644432,959.204731 978.426176,961.585262 981.930103,964.4205 C985.420656,967.242366 987.894804,969.3153 989.365918,970.652677 C994.742173,975.413738 999.27588,979.853829 1002.98041,983.999697 C1006.67157,988.172313 1010.16213,992.853132 1013.45207,998.095649 C1016.72865,1003.32479 1019.2028,1008.9819 1020.83439,1015.06696 C1022.47937,1021.15203 1023.30854,1027.70517 1023.30854,1034.75315 C1023.30854,1047.95306 1018.5876,1058.75906 1009.1591,1067.17116 C999.730588,1075.59664 988.282643,1079.796 974.815258,1079.796 C966.068814,1079.796 958.312028,1078.19115 951.544901,1074.98144 C944.777774,1071.77174 939.307903,1067.39852 935.162035,1061.87515 C931.002793,1056.36516 927.806462,1050.25335 925.573043,1043.55309 C923.339624,1036.83946 922.042368,1029.65774 921.69465,1021.9812 L960.358214,1014.53201 C960.358214,1018.37028 960.425083,1021.76722 960.558821,1024.69607 C960.692559,1027.6383 961.067024,1030.82126 961.65547,1034.28507 C962.243916,1037.74887 963.059716,1040.57074 964.062748,1042.77741 C965.079155,1044.97071 966.523522,1046.81629 968.355728,1048.32752 C970.214682,1049.82539 972.394606,1050.57432 974.908874,1050.57432 C982.45168,1050.57432 986.209709,1045.75976 986.209709,1036.13065 C986.209709,1022.91736 978.787267,1009.7977 963.902263,996.731525 L952.066478,986.674451 C948.295075,983.531615 945.299351,980.923731 943.065932,978.810675 C940.832513,976.724367 938.184507,973.902502 935.162035,970.34508 C932.112816,966.774284 929.759033,963.337225 928.033816,960.020531 C926.321974,956.703836 924.85086,952.705079 923.64722,948.024261 C922.416834,943.343442 921.80164,938.395147 921.80164,933.15263 C921.80164,917.866413 926.656318,905.776526 936.365674,896.869597 C946.061656,887.962667 958.940595,883.509202 975.015865,883.509202 Z M212.724443,887.38492 L212.724443,1075.92831 L174.595829,1075.92831 L174.595829,887.38492 L212.724443,887.38492 Z M761.143899,887.383583 L801.773407,1075.92697 L764.179744,1075.92697 L756.436332,1035.59168 L731.815225,1035.59168 L724.4864,1075.92697 L686.665383,1075.92697 L727.415255,887.383583 L761.143899,887.383583 Z M849.358612,887.380908 C856.339719,887.380908 862.505026,887.742 867.84116,888.477557 C873.190667,889.213114 878.433184,890.644107 883.555338,892.770537 C888.690865,894.91034 892.930349,897.745578 896.23367,901.316375 C899.550365,904.873797 902.211744,909.56799 904.191062,915.398953 C906.183754,921.229916 907.173413,928.13078 907.173413,936.088172 C907.173413,945.931266 904.859751,953.674678 900.205679,959.345155 C895.564982,965.002259 888.369894,969.469098 878.580296,972.745671 C901.008105,978.188795 912.201949,994.050084 912.201949,1020.30279 C912.201949,1039.24005 907.668242,1053.21564 898.587453,1062.3098 C889.520038,1071.39059 875.651441,1075.92429 857.008407,1075.92429 L810.494441,1075.92429 L810.494441,887.380908 L849.358612,887.380908 Z M260.159862,887.376896 L277.866731,943.733956 L296.924351,887.376896 L332.338089,887.376896 L301.859271,977.770196 L331.923503,1075.92028 L295.988187,1075.92028 L277.960347,1013.59852 L260.159862,1075.92028 L224.13093,1075.92028 L254.609748,978.398763 L223.916949,887.376896 L260.159862,887.376896 Z M424.399099,887.376896 L424.399099,913.562734 L383.876581,913.562734 L383.876581,964.891257 L412.563314,964.891257 L412.563314,991.705663 L383.876581,991.705663 L383.876581,1049.73444 L424.399099,1049.73444 L424.399099,1075.92028 L345.734593,1075.92028 L345.734593,887.376896 L424.399099,887.376896 Z M465.461917,887.283279 L506.840356,985.941569 L506.840356,887.283279 L538.469318,887.283279 L538.469318,1075.92028 L512.0695,1075.92028 L470.79805,971.283918 L470.79805,1075.92028 L438.018944,1075.92028 L438.018944,887.283279 L465.461917,887.283279 Z M643.85595,887.376896 L643.85595,1049.73444 L681.342623,1049.73444 L681.342623,1075.92028 L605.713963,1075.92028 L605.713963,887.376896 L643.85595,887.376896 Z M93.138881,887.32875 L109.789223,1001.6076 L128.231649,887.32875 L163.845994,887.32875 L126.559928,1075.87214 L91.6811402,1075.87214 L57.0029589,887.32875 L93.138881,887.32875 Z M852.394457,986.574148 L848.623055,986.574148 L848.623055,1049.0029 L852.193851,1049.0029 C857.155519,1049.0029 861.154276,1048.42783 864.230242,1047.27768 C867.292835,1046.12754 869.633245,1044.14822 871.238097,1041.36648 C872.856323,1038.57136 873.926224,1035.40178 874.447801,1031.88447 C874.969378,1028.3538 875.22348,1023.61949 875.22348,1017.68153 C875.22348,1007.83844 873.498264,1000.20202 870.047832,994.74552 C866.597399,989.302397 860.699568,986.574148 852.394457,986.574148 Z M744.386567,942.162538 L734.436483,1012.13409 L753.90869,1012.13409 L744.386567,942.162538 Z M849.318975,912.938756 L848.409074,912.938179 L848.409074,912.938179 L848.409074,961.538453 L854.908726,961.538453 C858.399279,961.538453 861.328135,960.883139 863.708665,959.559136 C866.089196,958.221759 867.881281,956.282562 869.098294,953.741546 C870.328681,951.20053 871.184602,948.445534 871.679431,945.516679 C872.160887,942.57445 872.401615,939.124018 872.401615,935.138635 C872.401615,931.995799 872.174261,929.240803 871.732926,926.873646 C871.264845,924.493115 870.756641,922.527171 870.194943,920.949066 C869.633245,919.384336 868.697081,918.046959 867.373078,916.963684 C866.049075,915.893782 864.872183,915.077982 863.869151,914.556405 C862.852744,914.034828 861.314761,913.660363 859.255201,913.406261 C857.209014,913.165533 855.537293,913.018422 854.280159,912.991674 C853.170923,912.956273 851.520257,912.941696 849.318975,912.938756 Z M355.78498,-0.204 C401.162176,-0.204 443.115687,23.9891469 465.824346,63.2812783 L465.824346,63.2812783 L706.592298,479.486323 L572.440027,715.667072 C572.440027,715.667072 341.408179,309.786576 277.468193,200.883981 C197.867523,65.3274649 116.167173,-0.204 116.167173,-0.204 L116.167173,-0.204 Z M942.373171,74.5473408 L722.816016,451.139284 L586.844913,216.095305 L630.884732,139.958442 L574.460804,74.5473408 L942.373171,74.5473408 Z M360.920507,26.6772744 L183.637834,26.6772744 C183.637834,26.6772744 183.644434,26.6838342 183.657532,26.6968719 L183.813289,26.8521753 C187.565742,30.5983937 250.548536,93.7508685 280.009209,141.450954 C286.629224,152.163343 313.938459,199.252381 323.741431,216.303936 L323.741431,216.303936 L520.375947,216.303936 L436.281692,70.1420215 C420.727999,43.2473733 392.001145,26.6772744 360.920507,26.6772744 L360.920507,26.6772744 Z" id="Combined-Shape" fill="#FFFFFF"></path>
    </g>
</svg>